<?xml version="1.0" encoding="UTF-8"?>
<!DOCTYPE svg PUBLIC "-//W3C//DTD SVG 1.1//EN" "http://www.w3.org/Graphics/SVG/1.1/DTD/svg11.dtd">
<!-- Creator: CorelDRAW -->
<svg xmlns="http://www.w3.org/2000/svg" xml:space="preserve" width="18.8414mm" height="17.1058mm" version="1.1" style="shape-rendering:geometricPrecision; text-rendering:geometricPrecision; image-rendering:optimizeQuality; fill-rule:evenodd; clip-rule:evenodd"
viewBox="0 0 53.41 48.49"
 xmlns:xlink="http://www.w3.org/1999/xlink"
 xmlns:xodm="http://www.corel.com/coreldraw/odm/2003">
 <defs>
  <style type="text/css">
   <![CDATA[
    .fil0 {fill:#DDDDDC;fill-rule:nonzero}
    .fil3 {fill:#99CDE5;fill-rule:nonzero}
    .fil1 {fill:#7FBBD3;fill-rule:nonzero}
    .fil2 {fill:#2C7289;fill-rule:nonzero}
   ]]>
  </style>
 </defs>
 <g id="Capa_x0020_1">
  <metadata id="CorelCorpID_0Corel-Layer"/>
  <g id="_2148035028992">
   <path class="fil0" d="M34.2 7.9c-0.46,3.31 -0.92,6.62 -1.38,9.93 -0.22,1.61 -0.44,3.21 -0.66,4.82 -0.1,0.74 -0.2,1.47 -0.3,2.21 -0.44,-0.03 -0.87,-0.04 -1.27,-0.08 -1.03,-0.09 -2.07,-0.17 -3.1,-0.23 -2.22,-0.12 -4.43,-0.17 -6.65,-0.23 -4.38,-0.12 -8.75,-0.09 -13.13,0.11 -1.16,0.05 -0.92,1.75 0.2,1.76 4.28,0.03 8.56,0.22 12.82,0.57 2.1,0.17 4.2,0.43 6.29,0.71 1.02,0.14 2.05,0.26 3.08,0.4 0.42,0.05 0.88,0.15 1.34,0.23 -1.91,2.12 -3.83,4.23 -5.74,6.34 -2.34,2.58 -4.75,5.11 -6.83,7.91 -0.49,0.66 0.36,1.73 1.05,1.11 2.62,-2.34 4.94,-4.98 7.32,-7.57 2.02,-2.2 4.04,-4.41 6.07,-6.61 0.25,-0 0.49,-0.07 0.7,-0.19 0.08,0.08 0.16,0.15 0.24,0.23 0.62,0.6 1.24,1.18 1.87,1.77 1.28,1.21 2.58,2.41 3.85,3.64 2.51,2.42 4.93,4.93 7.51,7.28 0.59,0.54 1.56,-0.35 1.03,-0.97 -2.25,-2.67 -4.65,-5.18 -6.96,-7.79 -1.14,-1.28 -2.25,-2.59 -3.38,-3.88 -0.56,-0.65 -1.12,-1.3 -1.69,-1.94 -0.48,-0.54 -0.94,-1.17 -1.52,-1.61 0.05,-0.87 0.05,-1.74 0.11,-2.56 0.11,-1.67 0.22,-3.35 0.33,-5.02 0.22,-3.35 0.43,-6.7 0.64,-10.05 0.07,-1.16 -1.66,-1.49 -1.82,-0.29z"/>
   <path class="fil1" d="M10.12 21.68c1.81,2.5 1.26,6 -1.24,7.81 -2.5,1.81 -6,1.26 -7.81,-1.24 -1.81,-2.5 -1.26,-6 1.24,-7.81 2.5,-1.81 6,-1.26 7.81,1.24z"/>
   <path class="fil1" d="M52.34 37.61c1.81,2.5 1.26,6 -1.24,7.81 -2.5,1.81 -6,1.25 -7.81,-1.24 -1.81,-2.5 -1.26,-6 1.24,-7.81 2.5,-1.81 6,-1.26 7.81,1.24z"/>
   <path class="fil2" d="M39.98 2.31c1.81,2.5 1.26,6 -1.24,7.81 -2.5,1.81 -6,1.26 -7.81,-1.24 -1.81,-2.5 -1.26,-6 1.24,-7.81 2.5,-1.81 6,-1.26 7.81,1.24z"/>
   <path class="fil2" d="M23.12 39.61c1.81,2.5 1.26,6 -1.24,7.81 -2.5,1.81 -6,1.25 -7.81,-1.24 -1.81,-2.5 -1.26,-6 1.24,-7.81 2.5,-1.81 6,-1.25 7.81,1.24z"/>
   <path class="fil3" d="M40.32 21.03c2.67,3.68 1.85,8.83 -1.83,11.5 -3.68,2.67 -8.83,1.85 -11.5,-1.83 -2.67,-3.68 -1.85,-8.83 1.83,-11.5 3.68,-2.67 8.83,-1.85 11.5,1.83z"/>
  </g>
 </g>
</svg>
