<?xml version="1.0" encoding="UTF-8"?>
<!DOCTYPE svg PUBLIC "-//W3C//DTD SVG 1.1//EN" "http://www.w3.org/Graphics/SVG/1.1/DTD/svg11.dtd">
<!-- Creator: CorelDRAW -->
<svg xmlns="http://www.w3.org/2000/svg" xml:space="preserve" width="11.0282mm" height="11.0281mm" version="1.1" style="shape-rendering:geometricPrecision; text-rendering:geometricPrecision; image-rendering:optimizeQuality; fill-rule:evenodd; clip-rule:evenodd"
viewBox="0 0 14.72 14.72"
 xmlns:xlink="http://www.w3.org/1999/xlink"
 xmlns:xodm="http://www.corel.com/coreldraw/odm/2003">
 <defs>
  <style type="text/css">
   <![CDATA[
    .fil0 {fill:#3E5158;fill-rule:nonzero}
   ]]>
  </style>
 </defs>
 <g id="Capa_x0020_1">
  <metadata id="CorelCorpID_0Corel-Layer"/>
  <path class="fil0" d="M12.05 12.67c-0.27,0.24 -0.55,0.45 -0.84,0.64l0.15 0.23c0.31,-0.2 0.6,-0.42 0.88,-0.66l-0.18 -0.2zm-1.3 0.91c-0.31,0.17 -0.63,0.31 -0.97,0.43l0.09 0.26c0.34,-0.12 0.68,-0.28 1,-0.45l-0.13 -0.24zm-1.47 0.6c-0.34,0.1 -0.69,0.17 -1.04,0.21l0.03 0.27c0.36,-0.05 0.72,-0.12 1.08,-0.22l-0.07 -0.26zm-1.57 0.26c-0.12,0.01 -0.24,0.01 -0.36,0.01 -0.23,0 -0.47,-0.01 -0.7,-0.03l-0.03 0.27c0.24,0.02 0.48,0.04 0.73,0.04 0.12,0 0.25,-0 0.37,-0.01l-0.01 -0.27zm-1.58 -0.1c-0.35,-0.06 -0.69,-0.15 -1.03,-0.26l-0.09 0.26c0.35,0.12 0.71,0.21 1.07,0.27l0.05 -0.27zm-1.52 -0.45c-0.32,-0.14 -0.64,-0.3 -0.94,-0.48l-0.14 0.23c0.32,0.19 0.64,0.36 0.98,0.5l0.11 -0.25zm-1.38 -0.78l-0 -0c-0.29,-0.21 -0.56,-0.44 -0.81,-0.68l-0.19 0.19c0.26,0.25 0.54,0.49 0.84,0.7l0 0 0.16 -0.22zm-1.18 -1.06c-0.24,-0.27 -0.45,-0.55 -0.64,-0.84l-0.23 0.15c0.2,0.31 0.42,0.6 0.66,0.88l0.2 -0.18zm-0.91 -1.3c-0.17,-0.31 -0.31,-0.63 -0.43,-0.97l-0.26 0.09c0.12,0.34 0.28,0.68 0.45,1l0.24 -0.13zm-0.6 -1.47c-0.1,-0.34 -0.17,-0.69 -0.21,-1.04l-0.27 0.03c0.05,0.36 0.12,0.72 0.22,1.08l0.26 -0.07zm-0.26 -1.57c-0.01,-0.12 -0.01,-0.24 -0.01,-0.36 0,-0.23 0.01,-0.46 0.03,-0.7l-0.27 -0.03c-0.02,0.24 -0.04,0.48 -0.04,0.72 0,0.13 0,0.25 0.01,0.38l0.27 -0.01zm0.1 -1.58c0.06,-0.35 0.15,-0.69 0.26,-1.03l-0.26 -0.09c-0.12,0.35 -0.21,0.71 -0.27,1.07l0.27 0.05zm0.45 -1.52c0.14,-0.32 0.3,-0.64 0.48,-0.94l-0.23 -0.14c-0.19,0.32 -0.36,0.64 -0.5,0.98l0.25 0.11zm0.78 -1.38l0.01 -0.01c0.21,-0.29 0.43,-0.56 0.67,-0.8l-0.19 -0.19c-0.25,0.26 -0.48,0.54 -0.7,0.84l-0.01 0.01 0.22 0.16zm1.06 -1.18c0.27,-0.24 0.55,-0.45 0.84,-0.64l-0.15 -0.23c-0.31,0.2 -0.6,0.42 -0.88,0.67l0.18 0.2zm1.3 -0.91c0.31,-0.17 0.63,-0.32 0.96,-0.44l-0.09 -0.26c-0.34,0.13 -0.68,0.28 -1,0.45l0.13 0.24zm1.47 -0.6c0.34,-0.1 0.69,-0.17 1.04,-0.21l-0.03 -0.27c-0.36,0.05 -0.72,0.12 -1.08,0.22l0.07 0.26zm1.57 -0.26c0.12,-0.01 0.24,-0.01 0.37,-0.01 0.23,0 0.46,0.01 0.69,0.03l0.03 -0.27c-0.24,-0.02 -0.48,-0.03 -0.72,-0.03 -0.13,0 -0.25,0 -0.38,0.01l0.01 0.27zm1.58 0.1c0.35,0.06 0.69,0.15 1.03,0.26l0.09 -0.26c-0.35,-0.12 -0.71,-0.21 -1.07,-0.27l-0.05 0.27zm1.52 0.45c0.32,0.14 0.64,0.3 0.94,0.48l0.14 -0.23c-0.32,-0.19 -0.64,-0.36 -0.98,-0.5l-0.11 0.25zm1.38 0.78l0.01 0.01c0.29,0.21 0.55,0.43 0.8,0.67l0.19 -0.19c-0.26,-0.25 -0.53,-0.48 -0.83,-0.7l-0.01 -0.01 -0.16 0.22zm1.18 1.06c0.24,0.27 0.45,0.55 0.64,0.84l0.23 -0.15c-0.2,-0.31 -0.42,-0.6 -0.67,-0.88l-0.2 0.18zm0.91 1.3c0.17,0.31 0.32,0.63 0.44,0.96l0.26 -0.09c-0.13,-0.34 -0.28,-0.68 -0.45,-1l-0.24 0.13zm0.6 1.47c0.1,0.34 0.17,0.69 0.21,1.04l0.27 -0.03c-0.05,-0.36 -0.12,-0.72 -0.22,-1.08l-0.26 0.07 0 0zm0.26 1.56c0.01,0.12 0.01,0.25 0.01,0.37 0,0.23 -0.01,0.46 -0.03,0.69l0.27 0.03c0.02,-0.24 0.03,-0.48 0.03,-0.71 0,-0.13 -0,-0.26 -0.01,-0.39l-0.27 0.01zm-0.09 1.58c-0.06,0.35 -0.15,0.69 -0.26,1.03l0.26 0.09c0.12,-0.35 0.21,-0.71 0.27,-1.07l-0.27 -0.05zm-0.45 1.52c-0.14,0.32 -0.3,0.64 -0.48,0.94l0.23 0.14c0.19,-0.32 0.36,-0.64 0.5,-0.98l-0.25 -0.11zm-0.77 1.38l-0.01 0.02c-0.21,0.29 -0.44,0.56 -0.68,0.81l0.19 0.19c0.25,-0.26 0.49,-0.54 0.71,-0.84l0.01 -0.02 -0.22 -0.16z"/>
 </g>
</svg>
