<?xml version="1.0" encoding="UTF-8"?>
<!DOCTYPE svg PUBLIC "-//W3C//DTD SVG 1.1//EN" "http://www.w3.org/Graphics/SVG/1.1/DTD/svg11.dtd">
<!-- Creator: CorelDRAW -->
<svg xmlns="http://www.w3.org/2000/svg" xml:space="preserve" width="27.4908mm" height="39.4207mm" version="1.1" style="shape-rendering:geometricPrecision; text-rendering:geometricPrecision; image-rendering:optimizeQuality; fill-rule:evenodd; clip-rule:evenodd"
viewBox="0 0 132.54 190.06"
 xmlns:xlink="http://www.w3.org/1999/xlink"
 xmlns:xodm="http://www.corel.com/coreldraw/odm/2003">
 <defs>
  <style type="text/css">
   <![CDATA[
    .fil5 {fill:#EDEDEB}
    .fil2 {fill:#F6CDA2;fill-rule:nonzero}
    .fil0 {fill:#EDEDEB;fill-rule:nonzero}
    .fil1 {fill:#3E5158;fill-rule:nonzero}
    .fil3 {fill:#313F44;fill-rule:nonzero}
    .fil4 {fill:#2C7289;fill-rule:nonzero}
   ]]>
  </style>
 </defs>
 <g id="Capa_x0020_1">
  <metadata id="CorelCorpID_0Corel-Layer"/>
  <g id="_2148034192720">
   <path class="fil0" d="M25.19 190.06c25.74,-15.89 62.47,-48.18 83.99,-76.63l-18.16 -31.08 -62.82 47.48 -3.02 60.23z"/>
   <path class="fil1" d="M91.02 82.37c-0.03,0.11 -0.13,0.85 -0.23,2.01 -0.45,5.18 -0.78,18.9 7.26,25.46 2.68,2.18 6.29,3.57 11.14,3.59l-6.08 -10.41 -11.37 -19.43 -0.71 -1.22z"/>
   <path class="fil2" d="M90.79 84.39c-0.45,5.18 -0.78,18.9 7.26,25.46 1.64,-2.13 3.34,-4.42 5.06,-6.82 4.3,-5.99 8.71,-12.66 12.49,-19.34l-11.73 -10.26 -12.13 10.17 -0.95 0.79z"/>
   <path class="fil3" d="M109.61 43.3l-4.91 -18.84c-0.47,-1.79 0.56,-3.63 2.33,-4.17 1.46,-0.45 3.04,0.12 3.89,1.39l10 15 -11.31 6.62z"/>
   <path class="fil1" d="M108.27 43.06c-6.96,21.36 -11.04,35.88 7.32,40.61l14.25 -25.92 -21.57 -14.7z"/>
   <path class="fil0" d="M84.84 46.18l0 0c-2.05,-1.98 -2.11,-5.25 -0.13,-7.3l34.5 -35.72c1.07,-1.11 2.83,-1.14 3.94,-0.07l3.42 3.3c1.11,1.07 1.14,2.83 0.07,3.94l-34.5 35.72c-1.98,2.05 -5.25,2.11 -7.3,0.13z"/>
   <path class="fil4" d="M86.62 44.39l0 0c-1.19,-1.15 -1.23,-3.06 -0.07,-4.25l11.43 -11.83 8.13 0.37 -15.23 15.64c-1.15,1.19 -3.06,1.23 -4.25,0.07z"/>
   <path class="fil0" d="M124.75 12.95l-8.08 -7.81c-1.19,-1.15 -1.22,-3.04 -0.07,-4.23 1.15,-1.19 3.04,-1.22 4.23,-0.07l8.08 7.81c1.19,1.15 1.22,3.04 0.07,4.23 -1.15,1.19 -3.04,1.22 -4.23,0.07z"/>
   <path class="fil1" d="M111.33 16.05l14.63 5.74c1.33,0.52 2.35,1.64 2.75,3.01l3.7 23.47c0.42,2.65 -0.11,5.37 -1.48,7.67l-16.27 27.3c-0.04,-4.06 -8.49,-6.97 -8.96,-17.38 -1.38,-11.11 12.18,-29.23 12.18,-29.23l1.18 -8.61 -10.48 -6.95c-1.15,-0.76 -1.63,-2.26 -1.02,-3.61 0.64,-1.4 2.34,-1.97 3.77,-1.41z"/>
   <path class="fil1" d="M119.03 33.92c-7.97,-1.72 -12.39,2.03 -11.04,6.63 -2.7,3.9 -2.29,6.92 0.47,9.86 -5.24,-2.03 -7.24,2.93 -6.44,5.5 0.8,2.57 8.6,9.38 8.6,9.38l16.79 -18.86 -8.37 -12.51z"/>
   <path class="fil3" d="M120.92 34.46c1.02,0.09 1.88,0.36 2.77,0.87 0.9,0.53 1.67,1.16 2.39,1.92 1.39,1.46 2.63,2.98 3.56,4.79 0.16,0.32 -0.37,0.6 -0.55,0.3 -0.98,-1.62 -2.21,-3.16 -3.75,-4.28 -0.74,-0.54 -1.52,-1.03 -2.28,-1.53 -0.81,-0.54 -1.56,-1.06 -2.31,-1.68 -0.17,-0.15 -0.03,-0.39 0.17,-0.38z"/>
   <path class="fil3" d="M110.77 39.46c0.34,0.09 0.74,-0.03 1.09,0.01 0.32,0.04 0.64,0.09 0.95,0.16 0.63,0.15 1.25,0.38 1.86,0.62 1.29,0.51 2.51,1.17 3.57,2.06 2.09,1.75 3.54,4.15 4.32,6.75 0.11,0.37 -0.43,0.58 -0.57,0.21 -0.9,-2.4 -2.56,-4.4 -4.55,-5.98 -0.97,-0.77 -2,-1.49 -3.12,-2.03 -0.55,-0.27 -1.12,-0.46 -1.7,-0.65 -0.3,-0.1 -0.6,-0.2 -0.91,-0.29 -0.3,-0.09 -0.66,-0.33 -0.97,-0.33 -0.4,-0 -0.33,-0.62 0.02,-0.53z"/>
   <path class="fil3" d="M110.15 48.99c0.31,0.03 0.63,0.2 0.9,0.34 0.32,0.15 0.61,0.35 0.91,0.55 0.57,0.37 1.01,0.86 1.46,1.37 0.89,1.03 1.65,2.13 2.38,3.27 0.22,0.34 -0.26,0.69 -0.51,0.37 -0.82,-1.02 -1.78,-1.94 -2.78,-2.78 -0.52,-0.43 -1.02,-0.85 -1.48,-1.35 -0.39,-0.43 -0.94,-0.88 -1.16,-1.42 -0.08,-0.2 0.11,-0.37 0.3,-0.35z"/>
   <path class="fil3" d="M107.48 62.36c1.19,0.8 1.53,2.32 1.26,3.66 -0.33,1.66 -1.52,3.02 -1.85,4.7 -0.27,1.37 -0.12,2.83 0.42,4.11 0.26,0.63 0.62,1.2 1.07,1.72 0.48,0.56 1.31,1.02 1.48,1.77 0.12,0.54 -0.32,0.97 -0.84,0.97 -0.77,0 -1.36,-0.79 -1.78,-1.36 -0.42,-0.58 -0.77,-1.18 -1.05,-1.84 -0.56,-1.32 -0.88,-2.74 -0.84,-4.18 0.04,-1.54 0.55,-2.9 1.26,-4.25 0.65,-1.24 1.82,-3.42 0.39,-4.59 -0.42,-0.34 0,-1.04 0.47,-0.72z"/>
   <path class="fil1" d="M109.28 97.36c-12.32,-3.84 -15.03,-15.87 -15.03,-15.87l9.61 -8.06 14.63 4.89 -9.21 19.03z"/>
  </g>
  <path class="fil5" d="M28.35 129.78c-2.01,40.15 -3.16,60.28 -3.16,60.28 -34.65,-0.93 -33.51,-21.06 3.16,-60.28z"/>
 </g>
</svg>
