<?xml version="1.0" encoding="UTF-8"?>
<!DOCTYPE svg PUBLIC "-//W3C//DTD SVG 1.1//EN" "http://www.w3.org/Graphics/SVG/1.1/DTD/svg11.dtd">
<!-- Creator: CorelDRAW -->
<svg xmlns="http://www.w3.org/2000/svg" xml:space="preserve" width="105.488mm" height="91.9251mm" version="1.1" style="shape-rendering:geometricPrecision; text-rendering:geometricPrecision; image-rendering:optimizeQuality; fill-rule:evenodd; clip-rule:evenodd"
viewBox="0 0 1327.9 1157.17"
 xmlns:xlink="http://www.w3.org/1999/xlink"
 xmlns:xodm="http://www.corel.com/coreldraw/odm/2003">
 <defs>
  <style type="text/css">
   <![CDATA[
    .str0 {stroke:#1E2229;stroke-width:2.52;stroke-miterlimit:22.9256}
    .str1 {stroke:#DDDDDC;stroke-width:0.96;stroke-miterlimit:10}
    .fil29 {fill:#EDEDEB}
    .fil8 {fill:#FEFEFE;fill-rule:nonzero}
    .fil25 {fill:#F6CDA2;fill-rule:nonzero}
    .fil28 {fill:#F3F4F4;fill-rule:nonzero}
    .fil9 {fill:#EDEDEB;fill-rule:nonzero}
    .fil10 {fill:#DDDDDC;fill-rule:nonzero}
    .fil11 {fill:#DDDDDC;fill-rule:nonzero}
    .fil24 {fill:#99CDE5;fill-rule:nonzero}
    .fil26 {fill:#7FBBD3;fill-rule:nonzero}
    .fil23 {fill:#3E5158;fill-rule:nonzero}
    .fil22 {fill:#313F44;fill-rule:nonzero}
    .fil27 {fill:#2C7289;fill-rule:nonzero}
    .fil0 {fill:url(#id0)}
    .fil16 {fill:url(#id1)}
    .fil5 {fill:url(#id2)}
    .fil13 {fill:url(#id3)}
    .fil12 {fill:url(#id4)}
    .fil4 {fill:url(#id5)}
    .fil20 {fill:url(#id6)}
    .fil19 {fill:url(#id7)}
    .fil21 {fill:url(#id8)}
    .fil15 {fill:url(#id9)}
    .fil17 {fill:url(#id10)}
    .fil1 {fill:url(#id11)}
    .fil2 {fill:url(#id12)}
    .fil18 {fill:url(#id13)}
    .fil6 {fill:url(#id14)}
    .fil3 {fill:url(#id15)}
    .fil14 {fill:url(#id16)}
    .fil7 {fill:url(#id17)}
   ]]>
  </style>
  <linearGradient id="id0" gradientUnits="userSpaceOnUse" x1="15.14" y1="711.3" x2="1183.36" y2="627.15">
   <stop offset="0" style="stop-opacity:1; stop-color:#2DCE90"/>
   <stop offset="1" style="stop-opacity:1; stop-color:#2DCEC0"/>
  </linearGradient>
  <linearGradient id="id1" gradientUnits="userSpaceOnUse" x1="515.4" y1="712.38" x2="-715.76" y2="1990.7">
   <stop offset="0" style="stop-opacity:1; stop-color:#1D5661"/>
   <stop offset="1" style="stop-opacity:1; stop-color:#1E5964"/>
  </linearGradient>
  <linearGradient id="id2" gradientUnits="userSpaceOnUse" xlink:href="#id1" x1="591.9" y1="785.46" x2="-639.25" y2="2063.78">
  </linearGradient>
  <linearGradient id="id3" gradientUnits="userSpaceOnUse" xlink:href="#id1" x1="439.19" y1="638.99" x2="-791.97" y2="1917.3">
  </linearGradient>
  <linearGradient id="id4" gradientUnits="userSpaceOnUse" x1="591.61" y1="785.78" x2="-639.55" y2="2064.1">
   <stop offset="0" style="stop-opacity:1; stop-color:#256170"/>
   <stop offset="1" style="stop-opacity:1; stop-color:#276776"/>
  </linearGradient>
  <linearGradient id="id5" gradientUnits="userSpaceOnUse" xlink:href="#id1" x1="561.87" y1="756.54" x2="-669.29" y2="2034.86">
  </linearGradient>
  <linearGradient id="id6" gradientUnits="userSpaceOnUse" xlink:href="#id1" x1="560.48" y1="755.8" x2="-670.72" y2="2034.08">
  </linearGradient>
  <linearGradient id="id7" gradientUnits="userSpaceOnUse" xlink:href="#id1" x1="621.64" y1="814.71" x2="-609.52" y2="2093.02">
  </linearGradient>
  <linearGradient id="id8" gradientUnits="userSpaceOnUse" xlink:href="#id1" x1="697.85" y1="888.1" x2="-533.31" y2="2166.41">
  </linearGradient>
  <linearGradient id="id9" gradientUnits="userSpaceOnUse" xlink:href="#id1" x1="576.57" y1="771.3" x2="-654.59" y2="2049.61">
  </linearGradient>
  <linearGradient id="id10" gradientUnits="userSpaceOnUse" xlink:href="#id1" x1="545.43" y1="741.31" x2="-685.73" y2="2019.62">
  </linearGradient>
  <linearGradient id="id11" gradientUnits="userSpaceOnUse" xlink:href="#id4" x1="591.91" y1="785.52" x2="-639.22" y2="2063.99">
  </linearGradient>
  <linearGradient id="id12" gradientUnits="userSpaceOnUse" xlink:href="#id1" x1="623.02" y1="815.44" x2="-608.2" y2="2093.72">
  </linearGradient>
  <linearGradient id="id13" gradientUnits="userSpaceOnUse" xlink:href="#id1" x1="591.61" y1="785.78" x2="-639.55" y2="2064.1">
  </linearGradient>
  <linearGradient id="id14" gradientUnits="userSpaceOnUse" xlink:href="#id1" x1="530.74" y1="726.55" x2="-700.42" y2="2004.86">
  </linearGradient>
  <linearGradient id="id15" gradientUnits="userSpaceOnUse" xlink:href="#id1" x1="454.53" y1="653.15" x2="-776.63" y2="1931.47">
  </linearGradient>
  <linearGradient id="id16" gradientUnits="userSpaceOnUse" xlink:href="#id1" x1="469.22" y1="667.91" x2="-761.94" y2="1946.21">
  </linearGradient>
  <linearGradient id="id17" gradientUnits="userSpaceOnUse" xlink:href="#id1" x1="668.11" y1="858.86" x2="-563.04" y2="2137.17">
  </linearGradient>
 </defs>
 <g id="Capa_x0020_1">
  <metadata id="CorelCorpID_0Corel-Layer"/>
  <path class="fil0 str0" d="M125.4 970.28c-58.21,-67.48 -91.97,-128.08 -101.27,-181.8 -24.73,-134.76 -1.62,-258.13 69.31,-370.1 106.99,-146.61 235.39,-241.01 385.2,-283.2 216.87,-42.27 386.79,-5.67 509.76,109.79 118,107.68 182.98,235.07 194.95,382.17 8.62,174.07 -51.85,312.34 -181.4,414.8 -267.08,161.78 -559.26,137.89 -876.56,-71.68z"/>
  <g id="_2148039419936">
   <path class="fil1" d="M1037.35 302.87c-1.6,-1.76 -3.2,-3.5 -4.83,-5.23l1.78 0 3.05 5.23z"/>
   <path class="fil2" d="M1086.92 365.74l-3.32 0 -14.19 -24.37c6.04,7.96 11.89,16.08 17.51,24.37z"/>
   <polygon class="fil3" points="769.49,441.78 685.53,441.78 643.55,369.71 685.53,297.64 769.49,297.64 811.47,369.71 "/>
   <polygon class="fil4" points="902.75,518.27 818.79,518.27 776.81,446.2 818.79,374.12 902.75,374.12 944.73,446.2 "/>
   <path class="fil5" d="M1034.3 441.78l-83.96 0 -41.98 -72.07 41.98 -72.07 82.18 0c1.62,1.74 3.22,3.47 4.83,5.23l38.93 66.84 -41.98 72.07z"/>
   <polygon class="fil6" points="769.49,594.31 685.53,594.31 643.55,522.23 685.53,450.16 769.49,450.16 811.47,522.23 "/>
   <polygon class="fil7" points="1034.3,594.31 950.34,594.31 908.36,522.23 950.34,450.16 1034.3,450.16 1076.28,522.23 "/>
   <path class="fil8" d="M632.24 615.07l448.41 0c8.96,0 16.22,-7.26 16.22,-16.22l0 -286.7c0,-8.96 -7.26,-16.22 -16.22,-16.22l-448.41 0c-8.96,0 -16.22,7.26 -16.22,16.22l0 286.7c0,8.96 7.26,16.22 16.22,16.22z"/>
   <path class="fil9" d="M632.24 615.07l0 1.28 448.41 0c9.66,0 17.5,-7.83 17.5,-17.5l0 -286.7c-0,-9.66 -7.83,-17.5 -17.5,-17.5l-448.41 0c-9.67,0 -17.5,7.83 -17.5,17.5l0 286.7c0,9.67 7.83,17.5 17.5,17.5l0 -2.56c-4.13,-0 -7.86,-1.67 -10.56,-4.38 -2.7,-2.71 -4.37,-6.43 -4.38,-10.56l0 -286.7c0,-4.13 1.67,-7.86 4.38,-10.56 2.71,-2.71 6.43,-4.37 10.56,-4.38l448.41 0c4.13,0 7.85,1.67 10.56,4.38 2.71,2.71 4.38,6.43 4.38,10.56l0 286.7c0,4.13 -1.67,7.86 -4.38,10.56 -2.71,2.71 -6.43,4.37 -10.56,4.38l-448.41 0 0 1.28z"/>
   <path class="fil9" d="M971.74 470.4c0,1.64 -1.33,2.98 -2.98,2.98l-65.08 0c-1.65,0 -2.98,-1.33 -2.98,-2.98 0,-1.65 1.33,-2.98 2.98,-2.98l65.08 0c1.64,0 2.98,1.33 2.98,2.98z"/>
   <path class="fil9" d="M967.09 454.84c0,1.65 -1.33,2.98 -2.98,2.98l-55.78 0c-1.65,0 -2.98,-1.33 -2.98,-2.98 0,-1.64 1.33,-2.98 2.98,-2.98l55.78 0c1.65,0 2.98,1.33 2.98,2.98z"/>
   <path class="fil9" d="M953.53 439.28c0,1.65 -1.33,2.98 -2.98,2.98l-28.68 0c-1.64,0 -2.98,-1.33 -2.98,-2.98 0,-1.64 1.33,-2.98 2.98,-2.98l28.68 0c1.64,0 2.98,1.33 2.98,2.98z"/>
   <path class="fil9" d="M971.74 555.71c0,1.64 -1.33,2.98 -2.98,2.98l-65.08 0c-1.65,0 -2.98,-1.33 -2.98,-2.98 0,-1.64 1.33,-2.98 2.98,-2.98l65.08 0c1.64,0 2.98,1.33 2.98,2.98z"/>
   <path class="fil9" d="M967.09 540.89c0,1.64 -1.33,2.98 -2.98,2.98l-55.78 0c-1.65,0 -2.98,-1.33 -2.98,-2.98 0,-1.64 1.33,-2.98 2.98,-2.98l55.78 0c1.65,0 2.98,1.34 2.98,2.98z"/>
   <path class="fil9" d="M953.53 526.07c0,1.64 -1.33,2.98 -2.98,2.98l-28.68 0c-1.64,0 -2.98,-1.33 -2.98,-2.98 0,-1.64 1.33,-2.98 2.98,-2.98l28.68 0c1.64,0 2.98,1.34 2.98,2.98z"/>
   <path class="fil9" d="M971.74 386.4c0,1.65 -1.33,2.98 -2.98,2.98l-65.08 0c-1.65,0 -2.98,-1.33 -2.98,-2.98 0,-1.64 1.33,-2.98 2.98,-2.98l65.08 0c1.64,0 2.98,1.33 2.98,2.98z"/>
   <path class="fil9" d="M967.09 401.22c0,1.64 -1.33,2.98 -2.98,2.98l-55.78 0c-1.65,0 -2.98,-1.33 -2.98,-2.98 0,-1.64 1.33,-2.98 2.98,-2.98l55.78 0c1.65,0 2.98,1.33 2.98,2.98z"/>
   <path class="fil9" d="M953.55 416.04c0,1.64 -1.33,2.98 -2.98,2.98l-28.68 0c-1.65,0 -2.98,-1.33 -2.98,-2.98 0,-1.64 1.33,-2.98 2.98,-2.98l28.68 0c1.64,0 2.98,1.33 2.98,2.98z"/>
   <path class="fil9" d="M966.63 485.97c0,1.64 -1.33,2.98 -2.98,2.98l-55.78 0c-1.64,0 -2.98,-1.33 -2.98,-2.98 0,-1.65 1.33,-2.98 2.98,-2.98l55.78 0c1.64,0 2.98,1.33 2.98,2.98z"/>
   <path class="fil9" d="M954.69 501.53c0,1.64 -1.34,2.98 -2.98,2.98l-31.76 0c-1.64,0 -2.98,-1.33 -2.98,-2.98 0,-1.65 1.34,-2.98 2.98,-2.98l31.76 0c1.64,0 2.98,1.33 2.98,2.98z"/>
   <path class="fil10" d="M972.73 470.41c0,23.99 -17.43,35.71 -34.29,47.05 -15.83,10.64 -30.79,20.69 -30.79,40.46 0,2.19 -1.78,3.97 -3.97,3.97 -2.19,0 -3.97,-1.78 -3.97,-3.97 0,-23.99 17.43,-35.71 34.3,-47.05 15.83,-10.64 30.78,-20.69 30.78,-40.46 0,-19.76 -14.95,-29.81 -30.78,-40.46 -16.86,-11.34 -34.3,-23.06 -34.3,-47.05 0,-2.19 1.78,-3.97 3.97,-3.97 2.19,0 3.97,1.78 3.97,3.97 0,19.76 14.96,29.81 30.79,40.46 16.86,11.33 34.29,23.06 34.29,47.05z"/>
   <path class="fil10" d="M972.73 382.89c0,23.99 -17.43,35.72 -34.29,47.05 -15.83,10.64 -30.79,20.7 -30.79,40.46 0,19.76 14.96,29.82 30.79,40.46 16.86,11.34 34.29,23.06 34.29,47.05 0,2.19 -1.78,3.97 -3.97,3.97 -2.19,0 -3.97,-1.78 -3.97,-3.97 0,-19.76 -14.95,-29.82 -30.78,-40.46 -16.86,-11.34 -34.3,-23.06 -34.3,-47.05 0,-23.99 17.43,-35.71 34.3,-47.05 15.83,-10.64 30.78,-20.7 30.78,-40.46 0,-2.19 1.78,-3.97 3.97,-3.97 2.19,0 3.97,1.78 3.97,3.97z"/>
   <path class="fil9" d="M774.44 340.33l164 0c2.83,0 5.12,-2.29 5.12,-5.12 0,-2.83 -2.29,-5.12 -5.12,-5.12l-164 0c-2.83,0 -5.12,2.29 -5.12,5.12 0,2.83 2.29,5.12 5.12,5.12z"/>
   <path class="fil9" d="M834.94 450.02c0.6,1.71 -0.3,3.59 -2.01,4.19l-67.81 23.79c-1.71,0.6 -3.59,-0.3 -4.19,-2.01 -0.6,-1.71 0.3,-3.59 2.01,-4.19l67.81 -23.79c1.71,-0.6 3.59,0.3 4.19,2.02z"/>
   <path class="fil10" d="M835.53 462.21c-4.44,9.23 -15.51,13.12 -24.75,8.68 -9.23,-4.44 -13.12,-15.51 -8.68,-24.75 4.44,-9.23 15.52,-13.12 24.75,-8.68 9.23,4.44 13.12,15.52 8.68,24.75z"/>
   <path class="fil9" d="M682.62 480.34c-0.1,-1.81 1.29,-3.36 3.1,-3.46l71.75 -3.99c1.81,-0.1 3.36,1.29 3.47,3.1 0.1,1.81 -1.29,3.36 -3.1,3.47l-71.75 3.99c-1.81,0.1 -3.37,-1.29 -3.47,-3.1z"/>
   <path class="fil9" d="M800.03 544.13c-1.57,0.92 -3.58,0.39 -4.5,-1.18l-36.29 -62.02c-0.92,-1.57 -0.39,-3.58 1.18,-4.5 1.57,-0.92 3.58,-0.39 4.5,1.18l36.29 62.02c0.92,1.57 0.39,3.58 -1.18,4.5z"/>
   <path class="fil9" d="M756.58 397.67c1.81,-0.1 3.37,1.29 3.47,3.1l3.99 71.75c0.1,1.81 -1.29,3.36 -3.1,3.47 -1.81,0.1 -3.36,-1.29 -3.47,-3.1l-3.99 -71.75c-0.1,-1.81 1.29,-3.36 3.1,-3.47z"/>
   <path class="fil10" d="M762.27 500.13c-13.33,0.74 -24.74,-9.47 -25.48,-22.8 -0.74,-13.33 9.47,-24.74 22.8,-25.48 13.33,-0.74 24.74,9.47 25.48,22.8 0.74,13.33 -9.47,24.74 -22.8,25.48z"/>
   <path class="fil10" d="M758.53 432.88c-10.23,0.57 -18.98,-7.26 -19.55,-17.49 -0.57,-10.23 7.26,-18.98 17.49,-19.55 10.23,-0.57 18.98,7.26 19.54,17.49 0.57,10.23 -7.26,18.98 -17.49,19.55z"/>
   <path class="fil10" d="M788.18 547.04c-9.91,-2.59 -15.84,-12.73 -13.25,-22.64 2.59,-9.91 12.73,-15.84 22.64,-13.25 9.91,2.59 15.84,12.73 13.25,22.63 -2.59,9.91 -12.73,15.84 -22.64,13.25z"/>
   <path class="fil10" d="M677.52 499.2c-10.23,0.57 -18.98,-7.26 -19.55,-17.49 -0.57,-10.23 7.26,-18.98 17.49,-19.54 10.23,-0.57 18.98,7.26 19.55,17.48 0.57,10.23 -7.26,18.98 -17.49,19.55z"/>
   <polygon class="fil9" points="855.16,574.09 857.72,574.09 857.72,372.7 855.16,372.7 "/>
   <path class="fil9" d="M996.58 494.91l76.53 0c2.12,0 3.84,-1.72 3.84,-3.84 0,-2.12 -1.72,-3.84 -3.84,-3.84l-76.53 0c-2.12,0 -3.84,1.72 -3.84,3.84 0,2.12 1.72,3.84 3.84,3.84z"/>
   <path class="fil9" d="M996.58 516.26l76.53 0c2.12,0 3.84,-1.72 3.84,-3.84 0,-2.12 -1.72,-3.84 -3.84,-3.84l-76.53 0c-2.12,0 -3.84,1.72 -3.84,3.84 0,2.12 1.72,3.84 3.84,3.84z"/>
   <path class="fil9" d="M996.58 537.61l76.53 0c2.12,0 3.84,-1.72 3.84,-3.84 0,-2.12 -1.72,-3.84 -3.84,-3.84l-76.53 0c-2.12,0 -3.84,1.72 -3.84,3.84 0,2.12 1.72,3.84 3.84,3.84z"/>
   <path class="fil9" d="M996.58 558.96l40.43 0c2.12,0 3.84,-1.72 3.84,-3.84 0,-2.12 -1.72,-3.84 -3.84,-3.84l-40.43 0c-2.12,0 -3.84,1.72 -3.84,3.84 0,2.12 1.72,3.84 3.84,3.84z"/>
   <path class="fil9" d="M996.58 390.84l76.53 0c2.12,0 3.84,-1.72 3.84,-3.84 0,-2.12 -1.72,-3.84 -3.84,-3.84l-76.53 0c-2.12,0 -3.84,1.72 -3.84,3.84 0,2.12 1.72,3.84 3.84,3.84z"/>
   <path class="fil9" d="M996.58 412.19l40.43 0c2.12,0 3.84,-1.72 3.84,-3.84 0,-2.12 -1.72,-3.84 -3.84,-3.84l-40.43 0c-2.12,0 -3.84,1.72 -3.84,3.84 0,2.12 1.72,3.84 3.84,3.84z"/>
   <path class="fil10" d="M740.2 532.23c-4.44,9.23 -15.51,13.12 -24.75,8.68 -9.23,-4.44 -13.12,-15.51 -8.68,-24.75 4.44,-9.23 15.52,-13.12 24.75,-8.68 9.23,4.44 13.12,15.52 8.68,24.75z"/>
   <path class="fil11 str1" d="M760.02 472.66c1.48,1.04 1.84,3.09 0.8,4.58l-41.34 58.78c-1.04,1.49 -3.1,1.84 -4.58,0.8 -1.49,-1.04 -1.84,-3.1 -0.8,-4.58l41.34 -58.78c1.04,-1.49 3.09,-1.84 4.58,-0.8z"/>
  </g>
  <path class="fil12" d="M372.8 1128.64l-83.96 0 -28.86 -49.55c5.96,3.02 11.98,5.94 18.04,8.74 31.56,14.59 64.28,26.34 97.75,35.71l-2.97 5.11z"/>
  <polygon class="fil13" points="372.8,823.59 288.83,823.59 246.85,751.52 288.83,679.44 372.8,679.44 414.78,751.52 "/>
  <polygon class="fil14" points="504.34,747.1 420.38,747.1 378.4,675.03 420.38,602.96 504.34,602.96 546.32,675.03 "/>
  <polygon class="fil15" points="637.6,823.59 553.64,823.59 511.66,751.52 553.64,679.44 637.6,679.44 679.58,751.52 "/>
  <polygon class="fil16" points="372.8,976.12 288.83,976.12 246.85,904.04 288.83,831.97 372.8,831.97 414.78,904.04 "/>
  <polygon class="fil17" points="504.34,899.63 420.38,899.63 378.4,827.56 420.38,755.48 504.34,755.48 546.32,827.56 "/>
  <path class="fil18" d="M375.77 1123.53c-33.47,-9.37 -66.19,-21.12 -97.75,-35.71 -6.06,-2.8 -12.08,-5.72 -18.04,-8.74l-13.12 -22.52 41.98 -72.07 83.96 0 41.98 72.07 -39.01 66.97z"/>
  <polygon class="fil19" points="504.34,1052.15 420.38,1052.15 378.4,980.08 420.38,908.01 504.34,908.01 546.32,980.08 "/>
  <path class="fil20" d="M246.11 1071.82c-6.68,-3.62 -13.28,-7.39 -19.8,-11.29l13.23 0 6.58 11.29z"/>
  <path class="fil21" d="M535.24 1151.63c-51.54,-4.56 -102.89,-12.81 -152.65,-26.22l37.79 -64.88 83.96 0 41.98 72.08 -11.08 19.02z"/>
  <path class="fil22" d="M277.07 416.4c2.1,-4.38 6.21,-7.37 9.61,-10.83 3.4,-3.46 6.34,-8.25 5.09,-12.94 -0.72,-2.73 -2.75,-4.93 -3.78,-7.56 -2.2,-5.65 0.78,-12.26 5.46,-16.12 4.68,-3.86 10.71,-5.59 16.55,-7.22 -8.64,-6.55 -14.55,-17.72 -12.09,-28.28 2.15,-9.22 14.55,-18.93 24.06,-17.91 -3.1,-2.15 -4.71,-6.87 -3.42,-10.66 1.77,-5.18 6.98,-8.4 12.17,-10.14 11.07,-3.71 24.97,-2.94 35.07,2.9 -5.08,-3.99 -8.88,-9.58 -10.72,-15.78 -1.31,-4.42 -1.29,-9.97 2.36,-12.79 2.31,-1.79 5.57,-1.96 8.37,-1.1 2.8,0.86 5.22,2.62 7.49,4.46 8.71,7.04 17.67,16.24 23.37,25.88 0.25,-4.48 -1.83,-8.72 -2.84,-13.09 -1.01,-4.37 -0.52,-9.8 3.31,-12.13 2.89,-1.76 6.66,-1.08 9.72,0.36 5.9,2.78 9.77,8.43 11.4,14.74 1.75,-3.98 6.05,-6.69 10.39,-6.56 4.35,0.13 8.47,3.1 9.98,7.18 4.11,-5.66 11.83,-10.54 18.17,-13.49 5.5,-2.55 12.02,-3.83 17.58,-1.43 5.56,2.41 9.25,9.5 6.41,14.85 4.61,1.45 9.54,1.39 14.38,1.44 4.84,0.06 9.8,0.26 14.24,2.18 4.44,1.92 8.29,5.92 8.66,10.74 0.37,4.82 -3.84,9.89 -8.63,9.27 4.44,-0.21 9.07,2.28 12.34,5.3 3.27,3.02 4.51,8.45 1.9,12.05 -1.7,2.36 -4.57,3.5 -6.93,5.2 -2.36,1.7 -4.38,4.72 -3.2,7.38 6.26,-0.99 12.51,-1.98 18.77,-2.97 4.83,-0.77 10.84,-1.02 13.4,3.14 1.93,3.12 0.66,7.43 -1.97,9.98 -2.63,2.55 -6.28,3.72 -9.84,4.6 -3.56,0.88 -7.24,1.59 -10.39,3.48 5.21,2.78 10.68,5.59 14.76,9.85 4.09,4.26 6.83,10.24 5.77,16.04 -1.06,5.81 -6.8,10.82 -12.61,9.74 1.53,4.62 4.94,8.33 7.67,12.37 2.74,4.03 4.9,9.03 3.48,13.69 -1.37,4.48 -5.82,7.47 -10.41,8.44 -0.52,0.11 -1.06,0.13 -1.58,0.21 0.99,0.99 1.96,2 2.88,3.06 1.36,1.56 2.67,3.25 3.31,5.22 0.64,1.97 0.51,4.31 -0.81,5.91 -2.27,2.76 -6.61,2.16 -10.04,1.14 -3.43,-1.02 -7.53,-2.08 -10.28,0.22 3.45,2.63 5.31,5.54 6.61,9.68 0.93,2.95 0.95,6.71 -1.54,8.55 -1.14,0.84 -2.61,1.1 -4.03,1.2 -7.16,0.48 -14.46,-2.87 -18.76,-8.6l8.43 -26.62 -124.18 3.66c15.27,25.25 25.19,53 17.19,79.78 -1.25,4.19 -6.63,5.61 -10.95,4.94 -4.32,-0.68 -8.45,-2.71 -12.83,-2.61 -4.38,0.09 -8.4,2.29 -12.48,3.87 -4.09,1.58 -8.94,2.5 -12.68,0.2 -5.74,-3.53 -7.11,-13.51 -13.85,-13.78 -2.42,-0.09 -4.68,1.29 -7.1,1.44 -5.74,0.37 -9.6,-6 -10.46,-11.69 -0.85,-5.69 -0.23,-11.87 -3.17,-16.82 -1.95,5.01 -9.54,5.87 -13.56,2.3 -4.03,-3.57 -4.71,-9.81 -3.07,-14.94 1.63,-5.13 5.65,-9.38 9.08,-13.52 -5.55,-0.59 -8.65,7.83 -14.23,7.81 -2.64,-0.01 -4.95,-2.11 -5.85,-4.59 -0.91,-2.48 -0.64,-5.24 0.01,-7.8 1.15,-4.52 3.55,-8.67 6.77,-12.04l-4.59 0.13c-9.8,0.28 -17.61,-11.75 -13.37,-20.59z"/>
  <path class="fil23" d="M600.37 1156.81l-357.28 0c0,0 21.26,-185.92 84.7,-292.1l211.97 0c0,0 77.52,76.62 60.6,292.1z"/>
  <path class="fil22" d="M475.16 949.96c-4.04,-1.74 -4.25,-10.09 -4.55,-13.41 -0.53,-5.93 -1.06,-11.87 -1.59,-17.8 -1.1,-12.33 -2.18,-24.66 -3.37,-36.97l-0.1 -0.33c3.04,-0.02 6.07,-0.06 9.11,-0.1 -0.72,22.87 -0.51,45.75 0.5,68.61zm54.6 -77.71c-27.08,1.87 -54.06,3.54 -81.22,3.93 -27.09,0.38 -54.19,-0.1 -81.25,-1.33 -2.45,-0.11 -2.41,3.62 0,3.79 27.04,1.86 54.14,2.8 81.25,2.86 3.64,0.01 7.29,-0.02 10.93,-0.03l-0.04 0.31c1.21,15.53 2.59,31.04 3.92,46.55 0.83,9.64 0.41,31.47 16,28.19 1.32,-0.28 2.51,-1.76 2.42,-3.13 -1.63,-24 -2.32,-48.06 -2.23,-72.12 16.77,-0.27 33.54,-0.82 50.22,-1.98 4.5,-0.31 4.53,-7.36 0,-7.04z"/>
  <path class="fil22" d="M499.24 1155.14c-1.28,-13.08 -2.78,-55.58 -4.62,-68.61 -3.67,-26.04 -8.08,-52.05 -15.08,-77.35 -4.29,-15.51 -8.17,-18.65 -9.29,1.78 -1.1,19.98 -1.28,40.01 -1.56,59.99 -0.22,18.81 0.17,67.05 0.28,85.86l30.44 0c-0.06,-0.56 -0.11,-1.11 -0.17,-1.67z"/>
  <path class="fil9" d="M406.95 748.88c24.53,233.4 -41.32,390.24 -41.32,390.24 -79.02,-20.35 -130.51,4.79 -187.98,-15.56 68.25,-160.44 117.39,-374.68 117.39,-374.68l111.91 0z"/>
  <path class="fil9" d="M533.23 521.84c37.9,28.99 167.32,198.71 167.32,198.71l-14.4 129.85c-83.38,-17.48 -198.2,-154.79 -198.2,-154.79l45.28 -173.77z"/>
  <path class="fil9" d="M252.94 584.36c-29.98,28.14 -75.58,329.19 -46.83,358.4l90.99 -54.15 53.13 -187.42 -97.28 -116.84z"/>
  <path class="fil9" d="M533.23 521.84c-37.39,-7.11 -140.19,-2.71 -140.19,-2.71 0,0 -97.27,25.85 -140.1,65.23 -3.56,16.08 4.38,132.19 74.85,280.36l211.97 0c-6.88,-102.55 37.76,-110.72 40.35,-165.68 2.62,-55.63 -61.12,-97.79 -46.88,-177.19z"/>
  <path class="fil10" d="M500.86 525.75c10.57,20.59 21.37,41.06 31.74,61.76 5.11,10.18 10.42,20.3 15.27,30.61 1.89,4.02 3.08,8.36 1.14,12.6 -1.25,2.74 -3.62,4.75 -6.11,6.34 -2.9,1.86 -6.1,3.18 -9.09,4.88 -0.96,0.55 -1.92,1.16 -2.82,1.84 9.29,-0.49 18.59,-0.97 27.88,-1.46 2.01,-0.1 3.03,1.88 2.77,3.59 -6.91,45.68 -13.83,91.37 -20.74,137.05 -1.97,13.01 -3.79,26.06 -5.96,39.04 -0.25,1.51 -2.05,2.35 -3.43,2 -1.62,-0.41 -2.2,-1.93 -2,-3.43 3.11,-23.01 6.89,-45.94 10.37,-68.89 3.44,-22.72 6.88,-45.45 10.32,-68.17 1.78,-11.76 3.56,-23.53 5.34,-35.29 -10.21,0.53 -20.41,1.07 -30.62,1.6 -1.7,0.09 -3.42,-1.9 -2.77,-3.59 2.36,-6.15 8.13,-8.95 13.67,-11.75 2.54,-1.29 5.01,-2.55 6.92,-4.49 1.98,-2 1.97,-4.96 0.76,-7.93 -2.12,-5.17 -4.91,-10.15 -7.33,-15.18 -2.38,-4.95 -4.77,-9.91 -7.15,-14.86 -4.87,-10.12 -9.69,-20.27 -14.49,-30.43 -5.42,-11.47 -10.6,-23.04 -15.99,-34.52 -0.73,-1.55 1.54,-2.89 2.34,-1.33z"/>
  <path class="fil10" d="M335.17 571.79c-0.15,-8.67 -0.45,-17.33 -0.79,-26 -0.08,-2.04 2.86,-1.92 3.1,0 3.79,30.95 3.55,62.47 0.69,93.48 -0.72,7.79 -1.66,15.57 -2.73,23.32 21.02,2.11 41.74,6.65 61.66,13.72 2.73,0.97 2.77,4.57 0,5.52 -9.07,3.13 -18.28,5.86 -27.59,8.16 -4.55,1.12 -9.15,2.05 -13.75,2.91 -3.91,0.73 -7.89,1.01 -11.82,1.55 11.78,20.77 21.25,42.76 29.16,65.28 8.2,23.37 14.6,47.38 19.12,71.73 2.55,13.76 4.84,27.7 5.4,41.69 0.1,2.66 -4.28,3.33 -4.71,0.61 -1.88,-12.11 -3.28,-24.29 -5.4,-36.36 -2.12,-12.09 -4.71,-24.1 -7.75,-35.99 -6.08,-23.76 -13.99,-47.04 -23.57,-69.61 -5.43,-12.8 -11.35,-25.44 -17.49,-37.91 -0.77,-1.56 0.24,-3.01 1.86,-3.21 4.76,-0.56 9.48,-2.08 14.16,-3.08 4.58,-0.97 9.13,-2.08 13.67,-3.2 6.34,-1.57 12.6,-3.41 18.83,-5.37 -17.86,-5.66 -36.31,-9.39 -54.98,-11.03 -1.99,-0.17 -3.04,-1.66 -2.77,-3.59 4.39,-30.6 6.22,-61.7 5.7,-92.61z"/>
  <path class="fil24" d="M366.22 527.29c0,0 45.66,140.62 51.59,186.86 5.93,46.24 5.28,156.57 5.28,156.57l103.14 0c0,0 -8.62,-178.75 -8.32,-195.68 0.31,-16.93 -34.25,-156.94 -34.25,-156.94l-117.44 9.19z"/>
  <path class="fil9" d="M506.42 825.84c50.12,91.31 78.37,307.28 78.37,307.28 0,0 36.3,-1.32 69.81,-12.1 -11.38,-35.52 -20.78,-100.5 -47.54,-181.09 -0.55,-1.61 -1.06,-3.22 -1.64,-4.83 -0.55,-1.67 -1.12,-3.33 -1.7,-5 -0.46,-1.32 -0.92,-2.64 -1.38,-3.97 -18.08,-51.76 -43.45,-109.35 -80.93,-169.36l-15 69.06z"/>
  <path class="fil10" d="M545.06 857.64c9.95,34.4 19.59,68.88 28.38,103.6 8.76,34.6 16.95,69.32 24.57,104.18 2.14,9.78 4.23,19.57 6.28,29.37 1.01,4.84 2.02,9.69 3.02,14.53 1.04,5.04 2.24,10.11 2.49,15.26 0.13,2.74 -3.63,2.85 -4.46,0.58 -1.54,-4.2 -2.34,-8.63 -3.24,-13.01 -0.91,-4.38 -1.82,-8.77 -2.74,-13.14 -1.84,-8.76 -3.72,-17.51 -5.61,-26.26 -3.75,-17.38 -7.61,-34.74 -11.59,-52.08 -7.98,-34.79 -16.06,-69.55 -24.52,-104.22 -4.74,-19.45 -9.53,-38.9 -14.54,-58.28 -0.33,-1.26 1.59,-1.76 1.95,-0.51z"/>
  <path class="fil25" d="M472.41 444.51l-1.55 34.43 -1.77 39.61 -0.44 20.75c-0.48,22.91 -18.7,41.48 -41.6,42.4 -23.07,0.93 -42.81,-16.39 -44.9,-39.39l-11.11 -122.33 101.36 24.53z"/>
  <polygon class="fil24" points="483.65,518.1 469.2,516.55 450.52,573.66 380.39,522.79 366.22,527.29 399.38,598.65 485.52,583.57 "/>
  <path class="fil26" d="M389.75 574.49c3.53,3.82 6.01,8.43 9.07,12.62 3.08,4.21 6.51,8.15 10.19,11.85 6.73,6.75 14.31,12.85 22.55,17.71 5.8,-12.99 12.39,-25.57 19.82,-37.7 0.51,-0.83 1.41,-0.8 2.01,-0.36l0.22 -0.03c6.99,1.51 13.63,5.63 19.45,9.66 4.82,3.34 9.34,7.09 13.52,11.19 0.48,-3.25 0.95,-6.5 1.45,-9.75 0.7,-4.58 1.05,-9.41 2.19,-13.9 0.62,-2.45 4.61,-2.04 4.46,0.58 -0.27,4.71 -1.39,9.49 -2.12,14.15 -0.74,4.75 -1.5,9.5 -2.27,14.24 -0.27,1.66 -2.67,2.21 -3.75,1.02 -4.73,-5.26 -9.97,-10.06 -15.71,-14.19 -5.35,-3.84 -11.23,-6.77 -16.73,-10.32 5.06,16.24 9.85,32.51 13.33,49.18 2.67,12.79 4.85,25.69 6.54,38.65 10.7,-2.51 21.36,-5.17 31.91,-8.22 0.97,-0.28 1.33,1.18 0.39,1.5 -10.59,3.64 -21.18,7.23 -31.84,10.6 0.38,3.06 0.76,6.12 1.09,9.18 3.7,34.91 3.62,70.33 0.38,105.28 -1.82,19.63 -4.68,39.17 -8.58,58.5 -0.73,3.62 -6.27,2.15 -5.54,-1.45 6.89,-34.11 10.47,-68.85 10.76,-103.65 0.18,-22.08 -0.91,-44.24 -3.24,-66.25 -13.48,4.14 -27.09,7.83 -40.97,10.63 -3.57,0.72 -5.05,-4.68 -1.45,-5.52 13.94,-3.22 27.96,-6.2 41.92,-9.4 -1.25,-11.09 -2.79,-22.13 -4.68,-33.1 -3.15,-18.28 -6.67,-36.61 -11.53,-54.52 -6.65,12.49 -12.7,25.31 -18.06,38.4 -0.48,1.17 -2.12,1.36 -3.1,0.85 -9.73,-5.01 -18.68,-11.17 -26.44,-18.94 -3.84,-3.85 -7.36,-7.99 -10.61,-12.36 -3.24,-4.35 -6.56,-8.93 -7.88,-14.26 -0.45,-1.81 1.91,-3.32 3.25,-1.87z"/>
  <path class="fil26" d="M449.24 629.86c0.13,-0.5 0.38,-0.93 0.74,-1.29 0.27,-0.29 0.58,-0.49 0.95,-0.6 0.33,-0.17 0.69,-0.25 1.07,-0.23 0.38,-0.02 0.73,0.07 1.07,0.23 0.37,0.12 0.68,0.31 0.95,0.6 0.36,0.37 0.61,0.8 0.74,1.29 0.21,0.55 0.46,1.1 0.63,1.66l0.13 0.42c0.11,0.36 0.17,0.64 0.2,1.05 0.02,0.28 0.03,0.55 0.01,0.82l-0.08 0.59 -0.23 0.56 -0.38 0.5c-0.22,0.24 -0.48,0.4 -0.78,0.5 -0.18,0.1 -0.37,0.15 -0.58,0.15l-0.6 0c-0.21,0 -0.4,-0.05 -0.58,-0.15 -0.3,-0.09 -0.56,-0.26 -0.78,-0.5 -0.21,-0.18 -0.41,-0.37 -0.59,-0.58 -0.36,-0.4 -0.59,-0.84 -0.84,-1.29 -0.29,-0.52 -0.52,-1.07 -0.77,-1.61 -0.25,-0.44 -0.37,-0.91 -0.37,-1.41 0.03,-0.24 0.06,-0.48 0.09,-0.73z"/>
  <path class="fil26" d="M459.11 698.35c0.11,-0.35 0.3,-0.65 0.58,-0.91l0.58 -0.44c0.31,-0.19 0.64,-0.29 1,-0.31 0.23,-0.06 0.46,-0.06 0.69,0 0.36,0.01 0.69,0.12 1,0.31l0.58 0.44c0.35,0.35 0.59,0.76 0.71,1.24 0.09,0.62 0.18,1.25 0.27,1.87 0.07,0.51 0.17,1.06 0.16,1.58 -0,0.31 -0.04,0.63 -0.05,0.94 -0.04,0.66 -0.26,1.37 -0.76,1.83l-0.55 0.42c-0.29,0.18 -0.61,0.28 -0.95,0.29 -0.22,0.06 -0.44,0.06 -0.66,0 -0.34,-0.01 -0.66,-0.11 -0.95,-0.29 -0.6,-0.38 -1.03,-0.91 -1.23,-1.6 -0.09,-0.3 -0.19,-0.6 -0.26,-0.9l-0.08 -0.47c-0.05,-0.37 -0.11,-0.74 -0.14,-1.1 -0.06,-0.63 -0.11,-1.26 -0.16,-1.88 -0.01,-0.36 0.06,-0.7 0.22,-1.02z"/>
  <path class="fil22" d="M471.59 471.68l-2.39 44.87c-46.24,4.78 -68.4,-21.22 -78.52,-49.84 19.27,-5.05 80.91,4.97 80.91,4.97z"/>
  <path class="fil25" d="M481.68 328.56c-8.77,-7.65 -19.99,-11.37 -32.06,-12.13 -30.79,-2 -67.22,15.32 -83.16,36.96 -23.3,31.62 -18.01,70.88 2.56,100.88 9.39,13.84 22.06,25.74 36.66,33.98 25.57,14.49 59.16,18.84 83.55,2.45 17.62,-11.79 27.77,-32.79 29.99,-53.91 3.78,-35.7 -9.7,-83.94 -37.54,-108.24z"/>
  <path class="fil22" d="M495.81 392.41c1.72,4.15 0.71,8.65 -2.26,10.05 -2.97,1.4 -6.78,-0.82 -8.51,-4.97 -1.72,-4.15 -0.71,-8.65 2.26,-10.05 2.97,-1.4 6.78,0.82 8.51,4.96z"/>
  <path class="fil22" d="M449.67 409.83c1.73,4.15 0.72,8.65 -2.26,10.05 -2.97,1.41 -6.79,-0.82 -8.51,-4.97 -1.73,-4.15 -0.71,-8.65 2.26,-10.05 2.97,-1.4 6.78,0.82 8.51,4.97z"/>
  <path class="fil22" d="M483.24 411.21c-7.03,-8.96 -14.47,-17.48 -22.03,-25.98 -0.73,-0.82 -2.1,0.11 -1.41,1.03 5.57,7.4 11.17,14.68 17.08,21.82 2.86,3.46 6.49,7.02 7.9,11.38 1.18,3.65 -0.44,7.11 -2.54,10 -0.54,0.75 -0.02,1.96 0.99,1.81 3.5,-0.5 5.57,-4.26 5.57,-7.56 0.01,-4.73 -2.77,-8.93 -5.57,-12.51z"/>
  <path class="fil22" d="M445.92 315.11c9.09,-4.6 20.33,-4.69 29.49,-0.23 2.74,1.33 5.37,3.11 6.99,5.68 1.62,2.58 2.06,6.06 0.46,8.65 -2.06,3.35 -6.72,4.15 -10.53,3.23 -3.82,-0.93 -7.16,-3.18 -10.76,-4.75 -3.6,-1.57 -7.91,-2.42 -11.36,-0.53 4.17,1.28 9.86,2.5 12.79,5.74 2.93,3.23 4.61,7.78 3.71,12.05 -0.91,4.27 -4.74,7.95 -9.11,7.98 -5.38,0.04 -9.34,-4.82 -12.36,-9.26 -3.02,-4.44 -6.71,-9.41 -12.08,-9.79 -1.69,4.47 -0.66,9.45 1.51,13.7 2.18,4.25 5.07,8.18 6.5,12.74 1.42,4.56 0.98,10.17 -2.68,13.24 -2.9,2.43 -7.21,2.65 -10.73,1.27 -3.52,-1.38 -6.34,-4.14 -8.61,-7.16 -4.68,-6.23 -7.4,-13.91 -7.7,-21.7 -3.71,3.39 -3.72,8.93 -4.94,13.81 -1.21,4.88 -3.1,10.16 -7.52,12.56 -3.91,2.12 -9.24,1.15 -12.14,-2.22 -2.9,-3.37 -3.07,-8.79 -0.4,-12.33 2.82,3.92 4.34,9.86 4.02,14.68 -0.32,4.82 -3.05,9.6 -7.43,11.64 -4.38,2.04 -10.26,0.75 -12.82,-3.35 7.12,4.86 13.86,12.58 17.51,20.38 1.66,3.56 2.91,7.44 2.6,11.35 -0.31,3.91 -2.43,7.86 -5.99,9.5 -3.57,1.64 -8.49,0.26 -10,-3.36 1.98,0.61 2.12,0.37 3.39,2 5.25,6.75 5.23,17.33 -0.61,23.58 -5.84,6.25 -17.05,6.7 -22.89,0.45 -9.99,-10.68 -15.39,-24.17 -15.55,-38.8 -0.3,-26.48 11.32,-52.86 31.06,-70.53 19.73,-17.66 49.89,-23.43 76.17,-20.21z"/>
  <path class="fil26" d="M345.49 430.21c-8.41,-36.33 -2.69,-68.98 16.09,-91.97 17.16,-21 43.52,-32.12 74.19,-31.29l-0.07 2.56c-29.87,-0.78 -55.49,9.98 -72.14,30.35 -18.27,22.35 -23.8,54.23 -15.58,89.77l-2.49 0.58z"/>
  <path class="fil25" d="M350.92 427.25c-9.13,-1.34 -19.52,1.94 -24.06,9.97 -3.79,6.69 -2.83,15.1 -0.27,22.35 3.31,9.35 9.27,17.92 17.57,23.35 8.3,5.43 19.02,7.42 28.43,4.29 9.41,-3.14 17.04,-11.75 18,-21.62 1.84,-18.94 -23.26,-35.93 -39.67,-38.33z"/>
  <path class="fil22" d="M369.5 458.17c-8.66,-6.58 -18.07,-6.63 -28.26,-4.46 -1.51,0.32 -1.29,2.89 0.31,2.75 8.31,-0.71 17.7,4.45 23.41,9.04 0.81,0.65 2.35,0.76 3.31,0.52 1.01,-0.25 2.11,-1 2.63,-1.91 1.23,-2.2 0.53,-4.47 -1.4,-5.94z"/>
  <path class="fil22" d="M496.81 349.24c-4.15,-6.29 -23.95,0.69 -25.23,8.15 -1.66,9.71 32.36,2.66 25.23,-8.15z"/>
  <path class="fil22" d="M426.75 376.8c-5.52,-6.87 -27.55,3.2 -28.24,12.04 -1.19,15.35 35.01,-3.62 28.24,-12.04z"/>
  <path class="fil9" d="M455.24 445.19c0.39,-2.03 17.96,-2.8 19.86,-0.69 1.21,1.35 -2.24,8.73 -9.75,8.87 -6.2,0.11 -10.57,-5.82 -10.11,-8.18z"/>
  <path class="fil10" d="M521.42 756.78l130.79 0.18 -0.11 77.75 -130.79 -0.18 0.11 -77.75zm-65.1 -22.23l-0.17 122.04 217.8 0.3 0.17 -122.04 -217.8 -0.3z"/>
  <path class="fil8" d="M560.53 696.22l26.73 0.04c4.24,0.01 7.66,3.44 7.66,7.68 -0.01,4.23 -3.44,7.66 -7.68,7.66l-0.95 -0 -0.16 117.4c-0.01,6.86 -5.58,12.41 -12.43,12.4 -6.86,-0.01 -12.41,-5.58 -12.41,-12.44l0.16 -117.4 -0.94 0c-4.24,-0.01 -7.66,-3.44 -7.66,-7.68 0.01,-4.23 3.44,-7.66 7.68,-7.66z"/>
  <path class="fil8" d="M509.8 696.14l26.73 0.04c4.24,0.01 7.66,3.44 7.66,7.68 -0,4.23 -3.44,7.66 -7.68,7.66l-0.95 -0 -0.16 117.4c-0.01,6.86 -5.58,12.41 -12.43,12.4 -6.86,-0.01 -12.41,-5.58 -12.4,-12.44l0.16 -117.4 -0.95 0c-4.23,-0.01 -7.66,-3.44 -7.66,-7.68 0.01,-4.24 3.44,-7.66 7.68,-7.66z"/>
  <path class="fil24" d="M561.36 784.45l-0.06 44.51c-0.01,6.86 5.54,12.42 12.39,12.43 6.85,0.01 12.41,-5.54 12.42,-12.39l0.06 -44.51 -24.82 -0.03z"/>
  <path class="fil9" d="M560.53 696.22l-0 1.28 26.73 0.04c3.52,0 6.38,2.86 6.38,6.39l0 0.01 0 0.07 1.28 -0.07 -1.28 -0c-0.01,3.52 -2.87,6.38 -6.39,6.38l-0 0 -0.07 0 0.07 1.28 0 -1.28 -0.94 -0c-0.34,-0 -0.66,0.13 -0.91,0.37 -0.24,0.24 -0.38,0.56 -0.38,0.91l-0.16 117.4c-0.01,6.14 -5,11.12 -11.14,11.12l-0.05 0 0.03 1.28 0 -1.28c-6.15,-0.01 -11.12,-5 -11.12,-11.14l0 -0.01 -0.83 0 0.83 0.02 0 -0.02 -0.83 0 0.83 0.02 0 -0.02 0.16 -117.4c0,-0.34 -0.13,-0.66 -0.38,-0.91 -0.24,-0.24 -0.56,-0.37 -0.91,-0.37l-0.94 0c-3.52,-0.01 -6.38,-2.87 -6.38,-6.39l0 -0.01 -1.05 0 1.05 0.02 0 -0.02 -1.05 0 1.05 0.02 0 -0.02c0.01,-3.52 2.87,-6.38 6.39,-6.38l0 0 0 -1.15 -0.06 1.15 0.05 0 0 -1.15 -0.06 1.15 0.06 0 0 -1.28 0.06 -1.28 -0.08 -0c-4.94,0 -8.94,4 -8.95,8.94l1.28 0 -1.28 -0.03 0 0.04c0,4.94 4,8.94 8.94,8.95l0.95 0 0 -1.28 -1.28 -0 -0.16 117.4 1.28 0 -1.28 -0.03 0 0.04c0,7.56 6.12,13.69 13.68,13.7l0.03 0 -0.02 -0.97 0 0.97 0.02 0 -0.02 -0.97 0 0.97 0.01 0c7.56,0 13.69,-6.12 13.7,-13.68l0.16 -117.4 -1.28 -0 -0 1.28 0.95 0 0.07 -0 -0.06 -1.2 0 1.21 0.06 -0 -0.06 -1.2 0 1.21 0 0c4.94,0 8.94,-4 8.95,-8.93l-0 -0.08 -1.18 0.07 1.18 -0.01 -0 -0.06 -1.18 0.07 1.18 -0.01 -0.29 0 0.29 0 0 -0 -0.29 0 0.29 0c0,-4.94 -4,-8.94 -8.94,-8.95l-26.73 -0.04 -0 1.28 0.06 -1.28 -0.06 1.28z"/>
  <path class="fil23" d="M510.68 748.88l-0.11 80.02c-0.01,6.85 5.54,12.41 12.39,12.42 6.86,0.01 12.42,-5.54 12.42,-12.39l0.11 -80.02 -24.81 -0.03z"/>
  <path class="fil9" d="M509.8 696.14l-0 1.28 26.73 0.04c3.52,0 6.38,2.86 6.38,6.39l0 0.03 1.28 -0.02 -1.28 0c-0,3.52 -2.86,6.38 -6.39,6.38l-0.01 0 -0.07 0 0.07 1.28 0 -1.28 -0.95 -0c-0.34,0 -0.66,0.13 -0.91,0.38 -0.24,0.24 -0.38,0.56 -0.38,0.9l-0.16 117.4c-0.01,6.14 -4.99,11.12 -11.14,11.12l-0.05 0 0.03 1.28 0 -1.28c-6.14,-0.01 -11.13,-4.99 -11.12,-11.14l-0.23 0 0.23 0.01 0 -0.01 -0.23 0 0.23 0.01 0 -0.02 0.16 -117.4c0,-0.34 -0.13,-0.66 -0.38,-0.91 -0.24,-0.24 -0.56,-0.38 -0.91,-0.38l-0.95 0 0 0c-3.52,-0.01 -6.38,-2.87 -6.38,-6.39l0 -0 -1.06 0 1.06 0.02 0 -0.02 -1.06 0 1.06 0.02 0 -0.02c0.01,-3.53 2.87,-6.38 6.39,-6.38l0 0 0.01 -1.14 -0.06 1.14 0.05 0 0.01 -1.14 -0.06 1.14 0.06 0 0 -1.28 0.06 -1.28 -0.08 0c-4.94,0 -8.94,4 -8.95,8.94l1.28 0 -1.28 -0.03 0 0.04c0,4.94 4,8.94 8.94,8.95l0.95 0 0 -1.28 -1.28 0 -0.16 117.4 1.28 0 -1.28 -0.02 0 0.04c0,7.56 6.12,13.69 13.68,13.7l0.04 0 -0.02 -0.97 0 0.97 0.02 0 -0.02 -0.97 0 0.97 0.01 0c7.56,-0 13.69,-6.12 13.7,-13.68l0.16 -117.4 -1.28 -0 -0 1.28 0.94 0 0.07 -0 -0.06 -1.2 0 1.2 0.06 -0 -0.06 -1.2 0 1.2 0.01 0c4.94,-0 8.94,-4 8.95,-8.94l0 -0.02 -0.91 0.02 0.91 0 0 -0.02 -0.91 0.02 0.91 0 0 -0.01c0,-4.94 -4,-8.94 -8.94,-8.95l-26.72 -0.04 -0 1.28 0.06 -1.28 -0.06 1.28z"/>
  <path class="fil8" d="M520.03 835.81l133.35 0.18 0.11 -80.31 -133.35 -0.18 -0.11 80.31zm-19.35 19.56l0.16 -119.48 171.99 0.24 -0.16 119.48 -171.99 -0.24z"/>
  <path class="fil9" d="M652.11 834.71l-130.79 -0.18 0.11 -77.75 130.79 0.18 -0.11 77.75zm-152.54 -100.1l-0.17 122.04 174.55 0.24 0.17 -122.04 -174.55 -0.24zm155.09 102.67l0 -2.56 0.11 -77.75 0 -2.56 -2.56 -0.01 -130.79 -0.18 -2.56 -0 -0 2.56 -0.11 77.75 -0 2.56 2.56 0 130.79 0.18 2.56 0.01zm-152.54 -100.1l169.43 0.23 -0.16 116.91 -169.43 -0.23 0.16 -116.92z"/>
  <path class="fil25" d="M225.6 930.49l234.31 -55.19 13.46 -40.47c0,0 -124.47,-5.04 -246.24,5.37l-1.54 90.29z"/>
  <polygon class="fil23" points="459.92,875.3 605.38,875.3 483.05,803.94 441.07,859.74 "/>
  <path class="fil23" d="M492.28 821.56l-14.82 -13.57c-4.38,-4.01 -3.8,-11.07 1.18,-14.31l1.54 -1c9.42,-6.13 22.06,-2.83 27.28,7.12 3.5,6.67 2.75,14.78 -1.93,20.69 -3.27,4.14 -9.37,4.62 -13.26,1.06z"/>
  <path class="fil23" d="M525.75 838.47l79.61 36.83 2.29 -1.51c8.99,-5.97 20.14,-7.68 30.49,-4.67 1.67,0.47 3.41,-0.21 4.32,-1.6 0.14,-0.22 0.25,-0.46 0.35,-0.7 2.62,-6.55 0.17,-13.87 -5.51,-17.58 -0.95,-0.62 -1.99,-1.09 -3.11,-1.51l-5.24 -1.45 -0.53 -0.14c-9.03,-2.47 -18.68,-0.36 -25.84,5.67l-74.4 -12.91 -2.42 -0.43z"/>
  <path class="fil23" d="M550.18 859.64l40.22 11.09c14.13,-10.76 25.61,-10.76 35.95,-7.74 1.67,0.47 3.41,-0.21 4.32,-1.6 0.14,-0.22 0.25,-0.46 0.36,-0.7 2.03,-5.01 1.03,-10.49 -2.08,-14.4l-0.53 -0.14c-9.03,-2.47 -18.68,-0.36 -25.84,5.67l-16.51 10.86 -35.88 -3.04z"/>
  <path class="fil23" d="M586.07 862.68l2.28 -1.51c8.98,-5.96 20.12,-7.67 30.47,-4.67 1.91,0.56 3.94,-0.43 4.68,-2.28 3.07,-7.66 -0.84,-16.33 -8.61,-19.11l-5.78 -1.57c-9.03,-2.46 -18.7,-0.34 -25.87,5.67l-76.81 -13.35 79.64 36.83z"/>
  <path class="fil22" d="M554.27 859.59c2.78,0.21 5.52,0.8 8.28,1.19 2.81,0.39 5.67,0.65 8.5,0.86 2.91,0.22 5.83,0.34 8.74,0.14 2.95,-0.2 5.63,-0.98 8.43,-1.86 9.26,-2.9 19.58,-10.63 29.27,-4.66 0.87,0.54 0.13,1.73 -0.77,1.35 -5.02,-2.14 -10.75,-0.39 -15.43,1.81 -4.81,2.27 -9.75,5.12 -15.1,5.79 -5.32,0.67 -10.48,1.01 -15.83,0.32 -5.4,-0.69 -11.14,-2 -16.23,-3.96 -0.49,-0.19 -0.49,-1.04 0.13,-0.99z"/>
  <path class="fil22" d="M580.38 868.09c2.11,0.96 5.2,1.81 7.47,1.08 1.85,-0.6 3.58,-1.23 5.28,-2.21 3.29,-1.91 6.66,-3.71 10.39,-4.61 7.06,-1.71 14.93,-2.44 21.97,-0.35 0.81,0.24 0.47,1.35 -0.32,1.24 -4.07,-0.6 -8.16,-0.93 -12.27,-0.52 -4.1,0.4 -7.9,1.83 -11.6,3.58 -3.42,1.63 -6.39,4.33 -9.95,5.6 -4.01,1.44 -7.75,-1.81 -11.15,-3.46 -0.22,-0.11 -0.03,-0.44 0.19,-0.33z"/>
  <path class="fil22" d="M491.28 818.92c1.68,1.52 4.16,2.38 6.3,2.64 1.11,0.13 2.4,-0.01 3.59,-0.17 1.14,-0.15 2.49,-0.42 3.42,-1.15 0.66,-0.51 1.46,0.26 0.92,0.92 -1.01,1.23 -1.93,2.39 -3.33,3.23 -1.46,0.88 -3.17,1.17 -4.86,1.05 -3.39,-0.23 -6.19,-2.24 -7.75,-5.23 -0.57,-1.09 0.79,-2.11 1.7,-1.29z"/>
  <path class="fil23" d="M466.28 834.52l-33.97 -3.09c0,0 -14.82,34.28 -1.54,54.35l42.61 -13.9 -7.1 -37.37z"/>
  <path class="fil9" d="M206.12 942.76c42.67,12 210.1,-24.41 210.1,-24.41l1.58 -85.97c0,0 -125.69,-14.72 -197.86,-16.68l-13.83 127.06z"/>
  <path class="fil10" d="M257.32 869.55c7.59,-8.49 14.77,-17.37 23.34,-24.94 8.42,-7.43 17.32,-14.32 26.48,-20.81 -0.31,-0.55 -0.42,-1.22 -0.33,-1.89 4.5,-33.83 9.19,-67.82 7.23,-102.04 -0.25,-4.33 -0.26,-8.96 -1.26,-13.19 -0.79,-3.36 -1.68,-6.67 -2.28,-10.07 -1.21,-6.8 -2.76,-13.55 -4.67,-20.2 -3.74,-13.04 -8.9,-25.61 -15.57,-37.43 -7.46,-13.22 -17.14,-25.74 -29.01,-35.28 -0.79,-0.64 0.27,-2.05 1.09,-1.44 11.08,8.4 20.66,18.13 28.54,29.61 7.95,11.58 13.98,24.44 18.36,37.77 2.19,6.66 4,13.45 5.4,20.31 0.7,3.45 1.43,6.93 1.68,10.44 0.12,1.69 0.14,3.4 0.17,5.1 0.04,2.24 0.34,4.43 0.58,6.65 1.88,17.29 1.81,34.7 0.71,52.04 -1.24,19.72 -3.7,39.35 -6.3,58.93 -0.04,0.34 -0.19,0.63 -0.4,0.88l0.47 0.52c0.18,0.32 0.27,0.64 0.32,0.96l0.28 -0.05c12.16,0.82 24.29,1.92 36.46,2.54 12.06,0.61 24.12,1.17 36.18,1.66 7,0.28 13.92,1.08 20.94,0.93 1.13,-0.02 1.13,1.72 0,1.75 -6.05,0.15 -12.06,0.75 -18.1,1.22 -6.12,0.47 -12.31,0.49 -18.45,0.51 -12.06,0.05 -24.13,-0.5 -36.16,-1.29 -6.81,-0.45 -13.65,-0.88 -20.43,-1.65 -0.75,0.98 -1.59,1.9 -2.34,2.86 -1.09,1.39 -2.15,2.8 -3.19,4.22 -2.12,2.93 -4.06,5.98 -6.17,8.92 -4.22,5.9 -8.29,11.82 -11.26,18.47 -0.42,0.94 -2.07,0.28 -1.69,-0.69 2.69,-6.81 5.17,-13.78 8.46,-20.33 1.62,-3.21 3.69,-6.22 5.75,-9.16 0.42,-0.6 0.87,-1.17 1.29,-1.76 -6.59,4.92 -13.05,9.99 -19.3,15.33 -8.49,7.26 -17.53,14.01 -25.39,21.98 -0.91,0.92 -2.26,-0.46 -1.41,-1.41z"/>
  <path class="fil10" d="M252.8 940.13c4.91,-1.01 9.95,-1.52 14.91,-2.24 4.74,-0.68 9.48,-1.36 14.21,-2.05 9.83,-1.42 19.66,-2.83 29.5,-4.25 19.43,-2.8 38.85,-5.63 58.35,-7.91 11.07,-1.29 22.21,-1.99 33.27,-3.42 1.26,-0.16 1.58,1.75 0.32,1.95 -9.69,1.54 -19.26,3.78 -28.94,5.44 -9.79,1.68 -19.58,3.33 -29.41,4.8 -19.41,2.89 -38.84,5.67 -58.27,8.47 -5.45,0.79 -10.9,1.57 -16.35,2.36 -5.55,0.8 -11.13,1.85 -16.72,2.32 -3.53,0.3 -4.42,-4.75 -0.89,-5.48z"/>
  <path class="fil10" d="M340.61 1127.84c1.94,-6.46 4.3,-12.82 6.39,-19.24 2.1,-6.43 4.12,-12.87 6.11,-19.33 3.97,-12.93 7.64,-25.93 11.16,-38.98 7.02,-25.99 13.22,-52.18 18.41,-78.59 2.93,-14.93 5.56,-29.91 8.16,-44.89 0.2,-1.11 2.08,-0.88 1.97,0.25 -2.78,26.79 -7.36,53.39 -12.79,79.76 -5.48,26.61 -12.12,52.94 -19.9,78.97 -2.16,7.24 -4.42,14.46 -6.76,21.65 -2.37,7.28 -4.61,14.68 -7.44,21.8 -0.55,1.39 -1.79,2.36 -3.36,1.96 -1.41,-0.35 -2.39,-1.94 -1.96,-3.36z"/>
  <path class="fil10" d="M245.29 975.95c3.2,0.17 6.36,1.37 9.45,2.18 3.14,0.82 6.28,1.62 9.43,2.4 6.41,1.58 12.85,3.06 19.31,4.43 12.81,2.73 25.7,5.06 38.65,6.98 6.56,0.98 13.15,1.76 19.71,2.7 0.36,-0.71 0.72,-1.42 0.96,-2.19 0.49,-1.52 0.92,-3.05 1.38,-4.57 0.14,-0.46 0.41,-0.76 0.71,-0.98l-0.06 0.01c-6.25,-0.81 -12.55,-1.07 -18.83,-1.62 -6.16,-0.55 -12.3,-1.26 -18.44,-2.03 -12.19,-1.52 -24.36,-3.15 -36.54,-4.79 -6.97,-0.94 -13.96,-1.84 -20.93,-2.83 -1.52,-0.21 -2.39,-2.11 -2.04,-3.48 0.43,-1.65 1.95,-2.23 3.48,-2.04 12.3,1.6 24.58,3.35 36.87,5.03 12.14,1.66 24.34,3.26 36.39,5.48 6.89,1.27 13.73,2.84 20.66,3.83 1.18,0.16 1.14,1.47 0.43,2.11 1.1,-0.01 2.22,0.86 1.88,2.26 -0.38,1.54 -0.78,3.09 -1.14,4.64 -0.36,1.59 -0.21,3.2 -0.59,4.78 -0.25,1.09 -1.45,2.1 -2.6,2.01 -13.14,-1.01 -26.28,-3.21 -39.25,-5.48 -12.9,-2.26 -25.72,-4.92 -38.45,-7.98 -3.61,-0.86 -7.2,-1.76 -10.79,-2.69 -3.6,-0.93 -7.66,-1.55 -10.96,-3.3 -2.24,-1.19 -1.32,-4.99 1.28,-4.85z"/>
  <path class="fil10" d="M574.88 938.41c2.24,1.69 3.62,4.94 4.28,7.56 0.29,1.18 1.55,1.87 2.7,1.58 7.64,-1.95 15.17,-4.51 22.71,-6.84 0.83,-0.26 1.67,-0.51 2.5,-0.78 -0.55,-1.61 -1.06,-3.22 -1.64,-4.83 -0.72,0.23 -1.44,0.46 -2.16,0.69 -6.93,2.24 -13.97,4.34 -20.81,6.87 -0.49,-1.03 -1,-2.01 -1.58,-2.96 -0.4,-0.63 -0.86,-1.18 -1.29,-1.72 2.53,-0.63 5.03,-1.47 7.47,-2.24 3.53,-1.09 7.04,-2.21 10.52,-3.42 2.07,-0.72 4.11,-1.44 6.15,-2.21 -0.46,-1.32 -0.92,-2.64 -1.38,-3.97 -2.07,0.72 -4.14,1.38 -6.21,2.04 -3.62,1.15 -7.24,2.3 -10.89,3.36 -3.48,1.03 -7.1,1.78 -10.37,3.3 -1.61,0.72 -1.12,2.73 0,3.56z"/>
  <polygon class="fil22" points="68.34,1157.17 1145.25,1157.17 1145.25,1154.61 68.34,1154.61 "/>
  <path class="fil26" d="M900.97 967.45l-22.12 0c-9.43,0 -17.11,-7.67 -17.11,-17.11l0 -153.16c0,-24.93 -20.28,-45.21 -45.22,-45.21 -24.93,0 -45.22,20.28 -45.22,45.21l0 29.72 -7.68 0 0 -29.72c0,-29.17 23.73,-52.9 52.9,-52.9 29.17,0 52.9,23.73 52.9,52.9l0 153.16c0,5.2 4.23,9.43 9.43,9.43l22.12 0 0 7.68z"/>
  <path class="fil8" d="M906.44 999.74c-6.45,0 -11.69,-5.24 -11.69,-11.69 0,-2.13 0.58,-4.23 1.68,-6.05l6.09 -10.07 -9.41 0 0 -16.34 19.29 0 27.05 -44.72 0 -118.5 23.28 0 0 118.5 43.02 71.14c1.1,1.83 1.68,3.92 1.68,6.05 0,6.45 -5.24,11.69 -11.69,11.69l-89.31 0z"/>
  <path class="fil9" d="M964.01 791.08l-25.85 0 0 119.43 -26.49 43.8 -19.85 0 0 18.9 8.42 0 -4.91 8.13c-1.22,2.03 -1.87,4.35 -1.87,6.71 0,7.17 5.81,12.97 12.97,12.97l89.31 0c7.17,0 12.98,-5.81 12.98,-12.97 0,-2.37 -0.65,-4.69 -1.87,-6.71l-42.83 -70.83 0 -119.43zm-2.56 2.56l0 117.58 0.37 0.61 42.83 70.83c0.98,1.63 1.5,3.49 1.5,5.39 0,5.74 -4.67,10.41 -10.41,10.41l-89.31 0c-5.74,0 -10.41,-4.67 -10.41,-10.41 0,-1.9 0.52,-3.76 1.5,-5.39l4.91 -8.13 2.35 -3.88 -10.4 0 0 -13.79 18.73 0 0.75 -1.23 26.49 -43.8 0.37 -0.61 0 -117.58 20.73 0z"/>
  <path class="fil8" d="M906.44 999.74c-6.45,0 -11.69,-5.24 -11.69,-11.69 0,-2.13 0.58,-4.23 1.68,-6.05l6.09 -10.07 -9.41 0 0 -16.34 19.29 0 27.05 -44.72 0 -118.5 23.28 0 0 118.5 43.02 71.14c1.1,1.83 1.68,3.92 1.68,6.05 0,6.45 -5.24,11.69 -11.69,11.69l-89.31 0z"/>
  <path class="fil9" d="M964.01 791.08l-25.85 0 0 119.43 -26.49 43.8 -19.85 0 0 18.9 8.42 0 -4.91 8.13c-1.22,2.03 -1.87,4.35 -1.87,6.71 0,7.17 5.81,12.97 12.97,12.97l89.31 0c7.17,0 12.98,-5.81 12.98,-12.97 0,-2.37 -0.65,-4.69 -1.87,-6.71l-42.83 -70.83 0 -119.43zm-2.56 2.56l0 117.58 0.37 0.61 42.83 70.83c0.98,1.63 1.5,3.49 1.5,5.39 0,5.74 -4.67,10.41 -10.41,10.41l-89.31 0c-5.74,0 -10.41,-4.67 -10.41,-10.41 0,-1.9 0.52,-3.76 1.5,-5.39l4.91 -8.13 2.35 -3.88 -10.4 0 0 -13.79 18.73 0 0.75 -1.23 26.49 -43.8 0.37 -0.61 0 -117.58 20.73 0z"/>
  <path class="fil8" d="M951.09 938.29c-3.63,0 -6.57,-2.95 -6.57,-6.58l0 -6.48c0,-2.32 1.21,-4.42 3.23,-5.63l0.62 -0.37 0 -170.43c0,-1.5 1.22,-2.72 2.72,-2.72 1.5,0 2.73,1.22 2.73,2.72l0 170.43 0.62 0.37c2.02,1.2 3.23,3.31 3.23,5.63l0 6.48c0,3.63 -2.95,6.58 -6.58,6.58z"/>
  <path class="fil9" d="M951.09 744.81c-2.21,0 -4,1.79 -4,4l0 169.7c-2.3,1.37 -3.85,3.86 -3.85,6.73l0 6.48c0,4.34 3.52,7.86 7.86,7.86 4.34,0 7.86,-3.52 7.86,-7.86l0 -6.48c0,-2.87 -1.55,-5.35 -3.85,-6.73l0 -169.7c0,-2.21 -1.79,-4 -4,-4zm0 2.56c0.8,0 1.45,0.65 1.45,1.44l0 171.16 1.25 0.75c1.63,0.97 2.6,2.66 2.6,4.53l0 6.48c0,2.92 -2.38,5.29 -5.3,5.29 -2.92,0 -5.29,-2.38 -5.29,-5.29l0 -6.48c0,-1.86 0.97,-3.55 2.6,-4.53l1.25 -0.74 0 -171.16c0,-0.8 0.65,-1.44 1.44,-1.44z"/>
  <path class="fil24" d="M952.46 920.1l0 -65.24 -2.73 0 0 65.24c-2.15,0.6 -3.74,2.55 -3.74,4.89l0 6.92c0,2.82 2.28,5.1 5.1,5.1 2.82,0 5.1,-2.28 5.1,-5.1l0 -6.92c0,-2.34 -1.59,-4.3 -3.74,-4.89z"/>
  <polygon class="fil24" points="892.51,969.52 923.55,969.52 923.55,958.17 892.51,958.17 "/>
  <path class="fil27" d="M990.61 992.99l-79.18 0c-6.01,0 -9.7,-6.58 -6.58,-11.7l19.64 -32.27 53.11 0 19.58 32.27c3.12,5.13 -0.58,11.7 -6.58,11.7z"/>
  <path class="fil26" d="M940.08 955.99c-5.36,0 -5.36,8.32 0,8.32 5.36,0 5.36,-8.32 0,-8.32z"/>
  <path class="fil26" d="M961.41 963.61c-8.42,0 -8.42,13.07 0,13.07 8.42,0 8.43,-13.07 0,-13.07z"/>
  <path class="fil26" d="M945.75 975.46c-6.89,0 -6.89,10.69 0,10.69 6.89,0 6.89,-10.69 0,-10.69z"/>
  <path class="fil23" d="M891.83 955.02l0 17.25 -1.05 0c-4.47,0 -8.1,-3.62 -8.1,-8.09l0 -1.06c0,-4.47 3.63,-8.09 8.1,-8.09l1.05 0z"/>
  <polygon class="fil23" points="692.75,1128.34 695.31,1128.34 695.31,1009.7 692.75,1009.7 "/>
  <polygon class="fil23" points="766.18,1128.34 768.74,1128.34 768.74,1009.7 766.18,1009.7 "/>
  <path class="fil8" d="M767.47 1068.78c-48.16,0 -87.35,-39.19 -87.35,-87.35 0,-41.46 29.46,-77.47 70.05,-85.63l1.03 -0.21 0 -55.88 32.54 0 0 55.88 1.03 0.21c40.59,8.15 70.05,44.17 70.05,85.63 0,48.17 -39.19,87.35 -87.35,87.35z"/>
  <path class="fil9" d="M785.01 838.44l-35.09 0 0 56.11c-40.54,8.14 -71.08,43.94 -71.08,86.88 0,48.95 39.68,88.63 88.63,88.63 48.95,0 88.63,-39.68 88.63,-88.63 0,-42.94 -30.54,-78.74 -71.08,-86.88l0 -56.11zm-2.56 2.56l0 55.64 2.06 0.41c39.99,8.03 69.02,43.52 69.02,84.37 0,47.46 -38.61,86.07 -86.07,86.07 -47.46,0 -86.07,-38.61 -86.07,-86.07 0,-40.86 29.03,-76.34 69.03,-84.37l2.06 -0.41 0 -55.64 29.97 0z"/>
  <path class="fil8" d="M767.47 1068.78c-48.16,0 -87.35,-39.19 -87.35,-87.35 0,-41.46 29.46,-77.47 70.05,-85.63l1.03 -0.21 0 -55.88 32.54 0 0 55.88 1.03 0.21c40.59,8.15 70.05,44.17 70.05,85.63 0,48.17 -39.19,87.35 -87.35,87.35z"/>
  <path class="fil9" d="M785.01 838.44l-35.09 0 0 56.11c-40.54,8.14 -71.08,43.94 -71.08,86.88 0,48.95 39.68,88.63 88.63,88.63 48.95,0 88.63,-39.68 88.63,-88.63 0,-42.94 -30.54,-78.74 -71.08,-86.88l0 -56.11zm-2.56 2.56l0 55.64 2.06 0.41c39.99,8.03 69.02,43.52 69.02,84.37 0,47.46 -38.61,86.07 -86.07,86.07 -47.46,0 -86.07,-38.61 -86.07,-86.07 0,-40.86 29.03,-76.34 69.03,-84.37l2.06 -0.41 0 -55.64 29.97 0z"/>
  <path class="fil27" d="M779.26 945.44l0 0c-6.51,6.51 -17.06,6.51 -23.57,0 -5.67,-5.67 -6.5,-14.59 -1.96,-21.21l13.75 -20.06 13.75 20.06c4.54,6.62 3.71,15.53 -1.96,21.21z"/>
  <path class="fil27" d="M838.54 983.03c0,39.25 -31.82,71.09 -71.07,71.09 -39.27,0 -71.09,-31.84 -71.09,-71.09 0,-4.65 0.46,-9.18 1.31,-13.57l139.53 0c0.86,4.4 1.31,8.92 1.31,13.57z"/>
  <path class="fil26" d="M749.7 981.48c-7.72,0 -7.73,11.99 0,11.99 7.72,0 7.73,-11.99 0,-11.99z"/>
  <path class="fil26" d="M782.18 993.46c-15.45,0 -15.46,23.97 0,23.97 15.45,0 15.45,-23.97 0,-23.97z"/>
  <path class="fil26" d="M748.7 1017.44c-11.33,0 -11.34,17.59 0,17.59 11.33,0 11.34,-17.59 0,-17.59z"/>
  <polygon class="fil23" points="839.61,1128.34 842.17,1128.34 842.17,1009.7 839.61,1009.7 "/>
  <polygon class="fil22" points="669.34,1018.08 865.58,1018.08 865.58,1003.28 669.34,1003.28 "/>
  <polygon class="fil23" points="687.61,1018.08 720.93,1018.08 720.93,1003.28 687.61,1003.28 "/>
  <polygon class="fil23" points="729.53,1018.08 745.59,1018.08 745.59,1003.28 729.53,1003.28 "/>
  <path class="fil23" d="M667.37 1155.89l452.66 0c0,-15.22 -12.33,-27.55 -27.55,-27.55l-397.57 0c-15.21,0 -27.55,12.33 -27.55,27.55z"/>
  <path class="fil22" d="M650.48 1155.89l116 0c0,-15.22 -12.33,-27.55 -27.55,-27.55l-60.91 0c-15.21,0 -27.55,12.33 -27.55,27.55z"/>
  <polygon class="fil23" points="1044.95,1142.59 1065.14,1142.59 1065.14,763.61 1044.95,763.61 "/>
  <polygon class="fil23" points="967.73,840.35 1055.04,840.35 1055.04,837.78 967.73,837.78 "/>
  <polygon class="fil23" points="950.29,1010.98 1055.04,1010.98 1055.04,1008.42 950.29,1008.42 "/>
  <polygon class="fil22" points="953.94,846.46 970.31,846.46 970.31,831.67 953.94,831.67 "/>
  <polygon class="fil22" points="933.5,846.46 948.29,846.46 948.29,831.67 933.5,831.67 "/>
  <polygon class="fil23" points="937,846.46 942.85,846.46 942.85,831.67 937,831.67 "/>
  <polygon class="fil23" points="958.95,846.46 965.68,846.46 965.68,831.67 958.95,831.67 "/>
  <polygon class="fil22" points="886.41,1017.1 1014.16,1017.1 1014.16,1002.31 886.41,1002.31 "/>
  <polygon class="fil23" points="904.4,1017.1 937.23,1017.1 937.23,1002.31 904.4,1002.31 "/>
  <polygon class="fil23" points="945.7,1017.1 961.52,1017.1 961.52,1002.31 945.7,1002.31 "/>
  <polygon class="fil22" points="908.32,1128.34 992.25,1128.34 992.25,1113.55 908.32,1113.55 "/>
  <polygon class="fil23" points="915.34,1128.34 947.06,1128.34 947.06,1113.55 915.34,1113.55 "/>
  <path class="fil24" d="M948.7 1068.64c16.76,1.65 22.84,-23.01 1.43,-39.34 0.49,7.23 -4.88,11.84 -9,17.35 -6.45,8.6 -2.08,21.04 7.57,21.99z"/>
  <path class="fil26" d="M949.3 1066.4c9.26,1.31 13.22,-12.24 1.72,-21.8 0.1,4.02 -2.98,6.46 -5.4,9.41 -3.79,4.63 -1.65,11.63 3.69,12.39z"/>
  <polygon class="fil22" points="938.26,1113.55 962.31,1113.55 962.31,1066.13 938.26,1066.13 "/>
  <polygon class="fil23" points="941.65,1113.55 952.47,1113.55 952.47,1066.13 941.65,1066.13 "/>
  <path class="fil23" d="M963.46 791.08l-24.73 0 0 -0.56c0,-4.74 3.85,-8.59 8.59,-8.59l7.55 0c4.74,0 8.59,3.84 8.59,8.59l0 0.56z"/>
  <path class="fil24" d="M210.28 992.93c0,0 8.74,-265.38 0,-290.66 -8.73,-25.28 -10.73,29.94 -14.06,135.07 -3.32,105.12 -3.52,155.59 -3.52,155.59l17.58 0z"/>
  <path class="fil26" d="M232.35 992.93c27.4,-164.6 13.56,-215.44 -11.9,0l11.9 0z"/>
  <path class="fil26" d="M186.25 992.93c-8.67,-204 -6.59,-233.63 10.38,-166.38 8.88,35.2 -3.87,166.38 -3.87,166.38l-6.52 0z"/>
  <path class="fil26" d="M222.49 992.93c24.93,-199.29 5.19,-219.26 3.26,-216.84 -2.61,3.26 -19.95,216.84 -19.95,216.84l16.7 0z"/>
  <path class="fil24" d="M179.99 992.93c-42.22,-232.48 -42.22,-316.54 -12.9,-186.21 29.32,130.33 22.81,186.21 22.81,186.21l-9.91 0z"/>
  <path class="fil24" d="M234.43 992.93c28.71,-75.29 38.41,-101.68 12.82,-81.48 -25.58,20.2 -19.93,81.48 -19.93,81.48l7.1 0z"/>
  <path class="fil24" d="M179.99 992.93c-55.8,-105.9 -21.73,-95.59 12.71,0l-12.71 0z"/>
  <path class="fil8" d="M175.31 1085.79c-11.27,0 -20.44,-9.16 -20.44,-20.42l0 -71.16 108.23 0 0 71.16c0,11.26 -9.17,20.42 -20.44,20.42l-67.35 0z"/>
  <path class="fil9" d="M264.38 992.93l-110.79 0 0 72.44c0,11.99 9.73,21.7 21.72,21.7l67.35 0c11.99,0 21.72,-9.71 21.72,-21.7l0 -72.44zm-2.56 2.56l0 69.88c0,10.56 -8.6,19.14 -19.16,19.14l-67.35 0c-10.56,0 -19.16,-8.58 -19.16,-19.14l0 -69.88 105.67 0z"/>
  <path class="fil9" d="M153.59 992.93l0 72.44c0,11.99 9.73,21.7 21.72,21.7l64.87 0c-25.23,-13.52 -43.78,-48.36 -61.03,-94.14l-25.57 0z"/>
  <path class="fil22" d="M94.4 1087.82l0 66.25 336.85 0c8.2,0 15.19,-5.58 17.81,-13.39 0.73,-2.13 1.12,-4.44 1.12,-6.85l0 -25.76c0,-2.55 -0.45,-4.99 -1.25,-7.24 -2.71,-7.6 -9.61,-13.01 -17.68,-13.01l-336.85 0z"/>
  <path class="fil23" d="M258.44 1100.83l0 39.85 190.6 0c0.73,-2.13 1.12,-4.44 1.12,-6.85l0 -25.76c0,-2.55 -0.45,-4.99 -1.25,-7.24l-190.47 0z"/>
  <path class="fil23" d="M246.43 1087.82l-146.55 0 0 66.26 146.55 0c18.3,0 33.13,-14.83 33.13,-33.13 0,-18.3 -14.83,-33.13 -33.13,-33.13z"/>
  <path class="fil23" d="M90.68 1087.82l29.04 0 0 9.93 -29.04 0c-2.56,0 -4.64,-2.22 -4.64,-4.96 0,-2.74 2.08,-4.96 4.64,-4.96z"/>
  <path class="fil23" d="M91 1144.14l28.71 0 0 9.93 -28.71 0c-2.74,0 -4.96,-2.22 -4.96,-4.96 0,-2.74 2.22,-4.96 4.96,-4.96z"/>
  <path class="fil9" d="M244.45 1097.75l-150.05 0 0 46.39 150.05 0c12.81,0 23.19,-10.39 23.19,-23.19 0,-12.81 -10.39,-23.2 -23.19,-23.2z"/>
  <path class="fil8" d="M95.68 1142.86l0 -37.73 135.24 0c15.34,0 27.83,12.48 27.83,27.82 0,5.46 -4.44,9.91 -9.91,9.91l-153.16 0z"/>
  <path class="fil9" d="M230.92 1103.84l-136.52 0 0 40.29 154.44 0c6.18,0 11.19,-5.01 11.19,-11.19 0,-16.08 -13.03,-29.11 -29.11,-29.11zm0 2.56c14.64,0 26.54,11.91 26.54,26.55 0,4.76 -3.87,8.63 -8.63,8.63l-151.88 0 0 -35.17 133.96 0z"/>
  <path class="fil9" d="M94.4 1113.46l157.86 0c-0.83,-0.91 -1.72,-1.76 -2.65,-2.56l-155.21 0 0 2.56z"/>
  <path class="fil9" d="M94.4 1121.67l163.19 0c-0.38,-0.88 -0.8,-1.73 -1.26,-2.56l-161.93 0 0 2.56z"/>
  <path class="fil9" d="M94.4 1129.87l165.41 0c-0.1,-0.87 -0.25,-1.72 -0.42,-2.56l-164.99 0 0 2.56z"/>
  <path class="fil9" d="M94.4 1138.07l164.58 0c0.39,-0.8 0.67,-1.66 0.85,-2.56l-165.43 0 0 2.56z"/>
  <path class="fil26" d="M277.41 1154.06l18.76 0c8.2,0 15.18,-5.57 17.81,-13.39l-18.76 0c-2.63,7.82 -9.61,13.39 -17.81,13.39z"/>
  <path class="fil26" d="M295.08 1100.82l18.76 0c-2.73,-7.6 -9.61,-13.01 -17.68,-13.01l-18.76 0c8.07,0 14.94,5.4 17.68,13.01z"/>
  <path class="fil26" d="M383.02 1154.06l18.76 0c8.2,0 15.18,-5.57 17.81,-13.39l-18.76 0c-2.64,7.82 -9.61,13.39 -17.81,13.39z"/>
  <path class="fil26" d="M400.7 1100.82l18.76 0c-2.73,-7.6 -9.61,-13.01 -17.68,-13.01l-18.76 0c8.07,0 14.94,5.4 17.68,13.01z"/>
  <path class="fil24" d="M296.33 1133.81c0,2.41 -0.39,4.72 -1.11,6.86l18.76 0c0.73,-2.14 1.11,-4.45 1.11,-6.86l0 -25.75c0,-2.55 -0.44,-4.99 -1.25,-7.24l-18.76 0c0.81,2.25 1.25,4.69 1.25,7.24l0 25.75z"/>
  <path class="fil24" d="M401.95 1133.81c0,2.41 -0.39,4.72 -1.11,6.86l18.76 0c0.72,-2.14 1.12,-4.45 1.12,-6.86l0 -25.75c0,-2.55 -0.44,-4.99 -1.25,-7.24l-18.76 0c0.81,2.25 1.25,4.69 1.25,7.24l0 25.75z"/>
  <path class="fil26" d="M400.01 1154.06l18.76 0c8.21,0 15.18,-5.57 17.81,-13.39l-18.76 0c-2.63,7.82 -9.61,13.39 -17.81,13.39z"/>
  <path class="fil26" d="M417.69 1100.82l18.76 0c-2.74,-7.6 -9.61,-13.01 -17.68,-13.01l-18.76 0c8.07,0 14.94,5.4 17.68,13.01z"/>
  <path class="fil24" d="M418.94 1133.81c0,2.41 -0.39,4.72 -1.12,6.86l18.76 0c0.73,-2.14 1.12,-4.45 1.12,-6.86l0 -25.75c0,-2.55 -0.44,-4.99 -1.25,-7.24l-18.76 0c0.81,2.25 1.25,4.69 1.25,7.24l0 25.75z"/>
  <path class="fil10" d="M140.94 679.56l0.84 10.21 2.55 -0.21 -0.84 -10.21 -2.55 0.21zm1.26 15.31l0.84 10.21 2.55 -0.21 -0.84 -10.21 -2.55 0.21zm1.26 15.31l0.84 10.21 2.55 -0.21 -0.84 -10.21 -2.55 0.21zm1.26 15.31l0.84 10.21 2.55 -0.21 -0.84 -10.21 -2.55 0.21z"/>
  <path class="fil24" d="M115.29 628.56c5.54,-2.79 12.3,-0.56 15.09,4.99 2.79,5.54 0.56,12.29 -4.99,15.08 -5.54,2.79 -12.3,0.56 -15.09,-4.98 -2.79,-5.54 -0.56,-12.3 4.99,-15.09z"/>
  <path class="fil10" d="M168.28 604.16c-3.33,1.67 -4.67,5.73 -2.99,9.05 1.67,3.33 5.73,4.67 9.05,2.99 3.33,-1.67 4.67,-5.73 2.99,-9.05 -1.68,-3.33 -5.73,-4.67 -9.05,-2.99z"/>
  <path class="fil26" d="M117.18 567.84c-7.82,3.93 -10.96,13.46 -7.03,21.27 3.93,7.82 13.46,10.96 21.27,7.03 7.82,-3.94 10.96,-13.46 7.03,-21.27 -3.93,-7.81 -13.46,-10.96 -21.27,-7.03z"/>
  <path class="fil23" d="M172.09 649.37c-1.76,2.45 -5.18,3.01 -7.63,1.24 -2.45,-1.76 -3.01,-5.18 -1.24,-7.63 1.76,-2.45 5.18,-3.01 7.63,-1.24 2.45,1.76 3.01,5.18 1.24,7.63z"/>
  <path class="fil23" d="M164.53 572.03c1.36,-1.89 0.93,-4.54 -0.96,-5.91 -1.9,-1.37 -4.54,-0.93 -5.91,0.96 -1.37,1.9 -0.94,4.54 0.96,5.9 1.89,1.37 4.54,0.94 5.9,-0.96z"/>
  <path class="fil26" d="M145.64 613.8c1.36,-1.9 0.93,-4.54 -0.96,-5.9 -1.9,-1.37 -4.54,-0.93 -5.91,0.96 -1.36,1.9 -0.93,4.54 0.96,5.91 1.9,1.36 4.54,0.93 5.91,-0.96z"/>
  <path class="fil26" d="M195.8 627.81c1.37,-1.89 0.94,-4.54 -0.96,-5.9 -1.9,-1.37 -4.54,-0.94 -5.9,0.96 -1.36,1.89 -0.94,4.54 0.96,5.91 1.9,1.36 4.54,0.93 5.91,-0.96z"/>
  <path class="fil26" d="M99.12 616.97c0.69,-0.97 0.47,-2.31 -0.49,-3.01 -0.97,-0.69 -2.31,-0.47 -3.01,0.49 -0.7,0.97 -0.48,2.31 0.49,3.01 0.97,0.69 2.31,0.47 3.01,-0.49z"/>
  <path class="fil23" d="M186.43 661.48c-2.52,2.23 -5.18,4.24 -7.96,6.03l1.39 2.15c2.89,-1.86 5.65,-3.95 8.27,-6.26l-1.7 -1.92zm-12.26 8.58c-2.94,1.6 -5.99,2.97 -9.11,4.1l0.87 2.41c3.24,-1.18 6.4,-2.59 9.46,-4.25l-1.22 -2.25zm-13.87 5.63c-3.21,0.9 -6.49,1.56 -9.79,1.98l0.32 2.54c3.43,-0.43 6.83,-1.11 10.16,-2.05l-0.69 -2.46zm-14.77 2.41c-1.12,0.06 -2.25,0.09 -3.38,0.09 -2.2,0 -4.41,-0.11 -6.61,-0.33l-0.25 2.55c2.28,0.23 4.57,0.34 6.86,0.34 1.17,0 2.34,-0.03 3.5,-0.09l-0.13 -2.56zm-14.94 -0.92c-3.26,-0.57 -6.5,-1.39 -9.68,-2.46l-0.82 2.43c3.31,1.11 6.67,1.96 10.05,2.56l0.44 -2.52zm-14.35 -4.23c-3.03,-1.28 -6,-2.8 -8.88,-4.56l-1.34 2.18c2.99,1.83 6.07,3.41 9.22,4.74l1 -2.36zm-13.04 -7.33l-0.04 -0.03c-2.74,-1.97 -5.28,-4.1 -7.62,-6.38l-1.78 1.83c2.43,2.37 5.07,4.58 7.91,6.63l0.04 0.03 1.5 -2.08zm-11.11 -10.03c-2.23,-2.52 -4.24,-5.18 -6.04,-7.96l-2.15 1.39c1.86,2.88 3.96,5.65 6.27,8.26l1.92 -1.7zm-8.59 -12.26c-1.6,-2.94 -2.97,-5.98 -4.1,-9.11l-2.41 0.87c1.18,3.24 2.6,6.4 4.26,9.46l2.25 -1.22zm-5.63 -13.86c-0.9,-3.21 -1.56,-6.49 -1.98,-9.79l-2.54 0.32c0.43,3.43 1.12,6.83 2.06,10.16l2.46 -0.69zm-2.42 -14.77c-0.06,-1.14 -0.09,-2.28 -0.09,-3.42 0,-2.19 0.11,-4.38 0.32,-6.56l-2.55 -0.25c-0.22,2.27 -0.33,4.54 -0.33,6.82 0,1.19 0.03,2.37 0.09,3.55l2.56 -0.13zm0.91 -14.94c0.57,-3.26 1.39,-6.5 2.46,-9.68l-2.43 -0.81c-1.11,3.3 -1.96,6.67 -2.55,10.05l2.52 0.44zm4.22 -14.35c1.28,-3.03 2.8,-6 4.56,-8.88l-2.18 -1.34c-1.83,2.99 -3.41,6.07 -4.73,9.22l2.36 1zm7.32 -13.05l0.05 -0.07c1.96,-2.72 4.09,-5.26 6.35,-7.59l-1.84 -1.78c-2.36,2.43 -4.56,5.05 -6.59,7.88l-0.06 0.08 2.08 1.49zm10.02 -11.12c2.52,-2.23 5.18,-4.25 7.95,-6.04l-1.39 -2.15c-2.88,1.87 -5.65,3.96 -8.26,6.28l1.7 1.92zm12.25 -8.6c2.94,-1.6 5.98,-2.97 9.1,-4.11l-0.88 -2.41c-3.24,1.18 -6.4,2.6 -9.45,4.27l1.23 2.25zm13.86 -5.64c3.21,-0.91 6.48,-1.57 9.79,-1.99l-0.32 -2.54c-3.43,0.43 -6.83,1.12 -10.16,2.06l0.69 2.47zm14.77 -2.43c1.15,-0.06 2.31,-0.09 3.47,-0.09 2.17,0 4.35,0.11 6.52,0.32l0.25 -2.55c-2.26,-0.22 -4.51,-0.33 -6.77,-0.33 -1.2,0 -2.4,0.03 -3.6,0.09l0.13 2.56zm14.94 0.9c3.26,0.57 6.5,1.38 9.68,2.45l0.81 -2.43c-3.31,-1.11 -6.67,-1.95 -10.05,-2.54l-0.44 2.52zm14.35 4.21c3.03,1.28 6.01,2.79 8.89,4.55l1.33 -2.18c-2.99,-1.83 -6.08,-3.4 -9.23,-4.73l-0.99 2.36zm13.06 7.31l0.11 0.08c2.71,1.95 5.23,4.07 7.56,6.32l1.78 -1.84c-2.42,-2.34 -5.03,-4.54 -7.84,-6.56l-0.11 -0.08 -1.49 2.08zm11.12 10.01c2.23,2.52 4.25,5.18 6.04,7.95l2.15 -1.39c-1.87,-2.88 -3.96,-5.64 -6.28,-8.26l-1.91 1.7zm8.6 12.25c1.6,2.94 2.98,5.98 4.12,9.1l2.41 -0.88c-1.18,-3.24 -2.61,-6.4 -4.27,-9.45l-2.25 1.23zm5.65 13.86c0.91,3.21 1.57,6.48 2,9.79l2.54 -0.32c-0.44,-3.43 -1.13,-6.83 -2.07,-10.16l-2.46 0.7 0 0zm2.44 14.76c0.06,1.17 0.09,2.34 0.09,3.51 0,2.16 -0.1,4.32 -0.31,6.47l2.55 0.25c0.22,-2.24 0.33,-4.48 0.33,-6.72 0,-1.21 -0.03,-2.43 -0.1,-3.65l-2.56 0.13zm-0.89 14.94c-0.57,3.26 -1.38,6.5 -2.44,9.69l2.43 0.81c1.1,-3.31 1.95,-6.67 2.54,-10.06l-2.52 -0.44zm-4.2 14.36c-1.28,3.04 -2.79,6.01 -4.55,8.89l2.19 1.33c1.83,-2.99 3.4,-6.08 4.72,-9.23l-2.36 -0.99zm-7.31 13.06l-0.1 0.15c-1.98,2.75 -4.13,5.3 -6.42,7.66l1.83 1.78c2.38,-2.44 4.61,-5.09 6.66,-7.94l0.11 -0.15 -2.08 -1.49z"/>
  <path class="fil23" d="M165.01 792.89c-2.98,1.34 -6.16,2.14 -9.4,2.39l0.19 2.55c3.53,-0.27 7.01,-1.14 10.26,-2.61l-1.05 -2.34zm-14.27 2.33c-3.19,-0.31 -6.35,-1.18 -9.34,-2.62l-1.11 2.31c3.26,1.57 6.72,2.52 10.2,2.87l0.25 -2.55zm-13.52 -5.12l-0.02 -0.01c-2.72,-1.96 -4.98,-4.31 -6.76,-6.93l-2.11 1.44c1.95,2.86 4.42,5.43 7.38,7.56l0.02 0.01 1.49 -2.08zm-9.16 -11.18c-1.34,-2.98 -2.15,-6.16 -2.4,-9.4l-2.55 0.19c0.27,3.53 1.15,7.01 2.61,10.26l2.34 -1.05zm-2.34 -14.27c0.31,-3.19 1.18,-6.35 2.62,-9.34l-2.31 -1.11c-1.57,3.26 -2.52,6.72 -2.86,10.2l2.55 0.25zm5.11 -13.52l0.02 -0.03c1.95,-2.72 4.3,-4.97 6.91,-6.75l-1.45 -2.11c-2.85,1.95 -5.41,4.41 -7.54,7.37l-0.03 0.04 2.08 1.49zm11.18 -9.17c2.98,-1.34 6.16,-2.15 9.4,-2.4l-0.2 -2.56c-3.53,0.27 -7.01,1.16 -10.26,2.62l1.05 2.34zm14.27 -2.35c3.19,0.31 6.35,1.17 9.34,2.61l1.11 -2.31c-3.27,-1.57 -6.72,-2.52 -10.2,-2.85l-0.25 2.55zm13.53 5.1l0.05 0.04c2.71,1.95 4.96,4.29 6.74,6.89l2.11 -1.45c-1.95,-2.84 -4.41,-5.4 -7.36,-7.52l-0.06 -0.04 -1.49 2.08zm9.18 11.17c1.35,2.97 2.16,6.16 2.41,9.4l2.55 -0.2c-0.27,-3.53 -1.16,-7.01 -2.63,-10.26l-2.33 1.06zm2.36 14.27c-0.31,3.19 -1.17,6.35 -2.61,9.34l2.31 1.11c1.57,-3.27 2.51,-6.72 2.84,-10.2l-2.55 -0.25zm-5.09 13.53l-0.05 0.07c-1.96,2.73 -4.32,4.99 -6.94,6.78l1.44 2.11c2.86,-1.95 5.44,-4.42 7.58,-7.4l0.05 -0.07 -2.08 -1.49z"/>
  <path class="fil24" d="M586.77 267.46l0 0c2.7,16.39 15.55,29.24 31.94,31.94 -16.39,2.7 -29.24,15.55 -31.94,31.94 -2.7,-16.39 -15.55,-29.24 -31.94,-31.94 16.39,-2.7 29.24,-15.55 31.94,-31.94z"/>
  <path class="fil24" d="M210.97 442.12l0 0c2.03,12.33 11.69,21.99 24.02,24.02 -12.33,2.03 -21.99,11.69 -24.02,24.02 -2.03,-12.33 -11.69,-21.99 -24.02,-24.02 12.33,-2.03 21.99,-11.69 24.02,-24.02z"/>
  <path class="fil24" d="M900.97 694.41l0 0c2.03,12.33 11.69,21.99 24.02,24.02 -12.33,2.03 -21.99,11.69 -24.02,24.02 -2.03,-12.33 -11.69,-21.99 -24.02,-24.02 12.33,-2.03 21.99,-11.69 24.02,-24.02z"/>
  <polygon class="fil9" points="646.35,48.46 645.19,47.31 590.87,101.63 611,176.75 686.11,196.88 741.1,141.89 720.98,66.77 645.86,46.64 645.19,47.31 646.35,48.46 645.93,50.04 718.31,69.44 737.46,140.91 685.14,193.23 613.67,174.08 594.51,102.61 647.5,49.62 646.35,48.46 645.93,50.04 "/>
  <polygon class="fil10" points="599.71,1.82 598.55,0.67 544.23,54.99 564.36,130.11 639.47,150.24 694.46,95.24 674.33,20.13 599.22,0 598.55,0.67 599.71,1.82 599.28,3.4 671.67,22.79 690.82,94.27 638.5,146.59 567.02,127.44 547.87,55.97 600.86,2.98 599.71,1.82 599.28,3.4 "/>
  <path class="fil26" d="M549.66 199.43l71.47 19.15 52.32 -52.32 -19.15 -71.47 -71.47 -19.15 -52.32 52.32 19.15 71.47zm72.45 22.79l-75.12 -20.13 -0.25 -0.91 -19.88 -74.2 0.67 -0.67 54.32 -54.32 75.12 20.12 0.24 0.91 19.88 74.21 -0.67 0.67 -54.32 54.32z"/>
  <g id="_2148034995728">
   <path class="fil10" d="M1242.59 628.55c-2.04,14.7 -4.1,29.39 -6.13,44.1 -0.99,7.13 -1.97,14.27 -2.95,21.4 -0.45,3.27 -0.9,6.54 -1.35,9.81 -1.93,-0.12 -3.84,-0.19 -5.62,-0.36 -4.59,-0.42 -9.17,-0.77 -13.78,-1.01 -9.85,-0.52 -19.69,-0.77 -29.55,-1.03 -19.43,-0.52 -38.87,-0.38 -58.29,0.5 -5.13,0.23 -4.08,7.78 0.87,7.81 19.01,0.13 38.01,0.97 56.95,2.54 9.34,0.77 18.66,1.93 27.95,3.16 4.55,0.6 9.1,1.18 13.66,1.76 1.87,0.24 3.91,0.65 5.97,1.02 -8.47,9.41 -16.99,18.78 -25.49,28.15 -10.39,11.45 -21.1,22.7 -30.32,35.13 -2.19,2.95 1.62,7.67 4.65,4.94 11.62,-10.41 21.95,-22.12 32.49,-33.61 8.98,-9.78 17.94,-19.59 26.97,-29.34 1.11,-0.02 2.17,-0.3 3.09,-0.86 0.36,0.34 0.72,0.67 1.07,1.01 2.74,2.65 5.52,5.26 8.29,7.88 5.7,5.38 11.46,10.71 17.11,16.16 11.16,10.75 21.9,21.87 33.34,32.33 2.63,2.4 6.91,-1.54 4.58,-4.31 -9.98,-11.85 -20.65,-23.02 -30.93,-34.61 -5.05,-5.69 -10,-11.49 -15,-17.23 -2.5,-2.88 -4.99,-5.76 -7.52,-8.6 -2.14,-2.41 -4.15,-5.18 -6.74,-7.14 0.22,-3.85 0.24,-7.74 0.47,-11.39 0.48,-7.44 0.97,-14.87 1.45,-22.3 0.96,-14.87 1.89,-29.75 2.83,-44.62 0.33,-5.17 -7.36,-6.61 -8.1,-1.29z"/>
   <path class="fil26" d="M1135.66 689.76c8.05,11.1 5.57,26.63 -5.53,34.67 -11.1,8.05 -26.63,5.57 -34.67,-5.52 -8.05,-11.1 -5.57,-26.63 5.53,-34.68 11.1,-8.05 26.63,-5.58 34.67,5.53z"/>
   <path class="fil26" d="M1323.17 760.5c8.05,11.1 5.58,26.63 -5.53,34.68 -11.1,8.05 -26.63,5.57 -34.67,-5.53 -8.05,-11.1 -5.58,-26.63 5.52,-34.67 11.1,-8.05 26.63,-5.58 34.67,5.52z"/>
   <path class="fil27" d="M1268.28 603.74c8.05,11.1 5.58,26.63 -5.52,34.67 -11.1,8.05 -26.63,5.58 -34.67,-5.52 -8.05,-11.1 -5.58,-26.63 5.52,-34.67 11.1,-8.05 26.63,-5.57 34.67,5.52z"/>
   <path class="fil27" d="M1193.41 769.41c8.05,11.1 5.57,26.62 -5.53,34.67 -11.1,8.05 -26.63,5.57 -34.67,-5.53 -8.05,-11.1 -5.58,-26.62 5.53,-34.67 11.1,-8.05 26.62,-5.57 34.67,5.53z"/>
   <path class="fil24" d="M1269.78 686.87c11.85,16.34 8.21,39.2 -8.14,51.05 -16.34,11.85 -39.2,8.21 -51.05,-8.14 -11.85,-16.35 -8.21,-39.2 8.14,-51.05 16.35,-11.85 39.2,-8.21 51.05,8.14z"/>
  </g>
  <path class="fil28" d="M86.04 909.76c-14.94,0 -14.95,23.19 0,23.19 14.94,0 14.95,-23.19 0,-23.19z"/>
  <path class="fil10" d="M617.97 758.56c0.27,-3.88 0.58,-7.77 0.95,-11.64 0.73,-7.65 1.67,-15.28 2.8,-22.88 2.28,-15.29 5.37,-30.45 9.38,-45.38 2.27,-8.42 5.01,-16.68 7.88,-24.91 0.32,-0.92 1.08,-1.35 1.84,-1.39 0.02,-0.2 0.02,-0.41 0.04,-0.61 0.37,-3.53 5.62,-3.71 5.64,0 0.03,6.84 -0.38,13.66 -0.18,20.51 0.2,6.83 0.64,13.65 1.18,20.46 1.07,13.67 3.56,27.22 6.78,40.53 0.45,1.86 -2.29,2.57 -2.87,0.75 -4.2,-13.26 -7.04,-26.87 -9.01,-40.62 -0.97,-6.78 -1.53,-13.59 -1.76,-20.43 -0.11,-3.15 -0.21,-6.35 -0.23,-9.55 -7.42,26.64 -12.84,53.99 -15.6,81.48 -0.43,4.33 -0.8,8.66 -1.11,13.01 -0.3,4.31 -0.21,8.77 -0.92,13.03 -0.53,3.22 -5.09,2.18 -5.32,-0.68 -0.31,-3.83 0.23,-7.84 0.49,-11.66z"/>
  <polygon class="fil10" points="620.89,834.67 652.11,834.71 652.22,756.96 620.99,756.92 "/>
  <path class="fil8" d="M611.27 696.29l26.73 0.04c4.23,0 7.66,3.44 7.66,7.68 -0.01,4.23 -3.44,7.66 -7.68,7.66l-0.94 -0 -0.16 117.4c-0.01,6.86 -5.58,12.41 -12.44,12.4 -6.86,-0.01 -12.41,-5.58 -12.4,-12.43l0.16 -117.4 -0.95 -0c-4.23,-0.01 -7.66,-3.44 -7.66,-7.68 0.01,-4.24 3.44,-7.66 7.68,-7.66z"/>
  <path class="fil23" d="M612.18 723.47l-0.15 105.57c-0.01,6.85 5.54,12.42 12.39,12.42 6.85,0.01 12.41,-5.54 12.42,-12.39l0.14 -105.57 -24.82 -0.03z"/>
  <path class="fil9" d="M611.27 696.29l-0 1.28 26.73 0.04c3.52,0 6.38,2.86 6.38,6.39l0 0.06 1.28 -0.04 -1.28 -0c-0,3.52 -2.86,6.38 -6.39,6.38l-0 0 -0.07 0 0.07 1.28 0.01 -1.28 -0.95 -0c-0.34,-0 -0.66,0.13 -0.91,0.37 -0.24,0.24 -0.38,0.56 -0.38,0.91l-0.16 117.4c-0.01,6.15 -4.99,11.12 -11.14,11.12l-0.05 0 0.03 1.28 0 -1.28c-6.15,-0.01 -11.13,-4.99 -11.12,-11.14l0 -0 -1.06 -0 1.06 0.04 0 -0.04 -1.06 -0 1.06 0.04 0 -0.05 0.16 -117.4c0,-0.71 -0.57,-1.28 -1.28,-1.28l-0.94 -0c-3.53,-0.01 -6.38,-2.86 -6.38,-6.39l0 0 -1.16 -0.01 1.16 0.06 0 -0.06 -1.16 -0.01 1.16 0.06 0 -0.07c0,-3.52 2.87,-6.38 6.39,-6.38l0 0 0.01 -1.14 -0.06 1.14 0.05 0 0.01 -1.14 -0.06 1.14 0.06 0 0 -1.28 0.06 -1.28 -0.08 -0c-4.94,0 -8.94,4 -8.95,8.94l1.28 0 -1.28 -0.07 -0 0.08c0,4.94 4,8.94 8.93,8.95l0.94 0 0 -1.28 -1.28 -0 -0.16 117.4 1.28 0 -1.28 -0.05 0 0.06c0,7.56 6.12,13.69 13.68,13.7l0.04 0 -0.03 -0.97 0 0.97 0.03 0 -0.03 -0.97 0 0.97 0.01 0c7.56,0 13.69,-6.12 13.7,-13.68l0.16 -117.4 -1.28 0 -0 1.28 0.94 0 0.07 0 -0.06 -1.2 0 1.2 0.06 0 -0.06 -1.2 0 1.2 0 0c4.94,0 8.94,-4 8.95,-8.94l0 -0.04 -1.09 0.04 1.09 0 0 -0.04 -1.09 0.04 1.09 0 0 -0.01c0,-4.94 -4,-8.94 -8.94,-8.95l-26.73 -0.04 0 1.28 0.06 -1.28 -0.06 1.28z"/>
  <path class="fil23" d="M783.63 838.44l-32.32 0 0 -6.92c0,-8.93 7.24,-16.16 16.16,-16.16 8.93,0 16.16,7.23 16.16,16.16l0 6.92z"/>
  <path class="fil28" d="M793.76 184.12c-14.94,0 -14.95,23.19 0,23.19 14.94,0 14.95,-23.19 0,-23.19z"/>
  <path class="fil28" d="M325.02 184.12c-14.94,0 -14.95,23.19 0,23.19 14.94,0 14.95,-23.19 0,-23.19z"/>
  <path class="fil8" d="M1223.36 857.52c-14.94,0 -14.95,23.18 0,23.18 14.94,0 14.95,-23.18 0,-23.18z"/>
  <path class="fil8" d="M502 805.57c-14.94,0 -14.95,23.18 0,23.18 14.94,0 14.95,-23.18 0,-23.18z"/>
  <path class="fil8" d="M11.21 591.85c-14.94,0 -14.95,23.19 0,23.19 14.94,0 14.95,-23.19 0,-23.19z"/>
  <path class="fil8" d="M234.99 335.21c-14.94,0 -14.95,23.19 0,23.19 14.94,0 14.95,-23.19 0,-23.19z"/>
  <path class="fil8" d="M222.53 985.31c-14.94,0 -14.95,23.19 0,23.19 14.94,0 14.95,-23.19 0,-23.19z"/>
  <path class="fil8" d="M1139.89 467.42c-14.94,0 -14.95,23.18 0,23.18 14.94,0 14.95,-23.18 0,-23.18z"/>
  <path class="fil8" d="M978.94 640.05c-14.94,0 -14.95,23.18 0,23.18 14.94,0 14.95,-23.18 0,-23.18z"/>
  <path class="fil8" d="M1044.95 147.11c-14.94,0 -14.95,23.19 0,23.19 14.94,0 14.95,-23.19 0,-23.19z"/>
  <path class="fil8" d="M1120.04 988.15c-14.94,0 -14.95,23.18 0,23.18 14.94,0 14.95,-23.18 0,-23.18z"/>
  <g id="_2148035017952">
   <path class="fil9" d="M767.25 815.66c42.71,-47.45 85.19,-103.57 113.19,-153.81l-58.19 -73.79 -145.25 145.49c15.54,100.96 45.63,128.33 90.26,82.11z"/>
   <path class="fil23" d="M822.26 588.1c-0.03,0.31 -0.03,2.24 0.13,5.29 0.72,13.55 4.81,49.15 27.98,63.21 7.73,4.68 17.56,6.94 30.09,5.24l-19.49 -24.72 -36.42 -46.12 -2.29 -2.9z"/>
   <path class="fil25" d="M822.38 593.39c0.72,13.55 4.81,49.15 27.98,63.21 3.46,-6.1 7.03,-12.64 10.6,-19.48 8.95,-17.04 17.95,-35.87 25.28,-54.53l-34.03 -22.28 -27.67 30.68 -2.16 2.39z"/>
   <path class="fil22" d="M856.18 480.36l-19.51 -46.94c-1.85,-4.46 0.14,-9.59 4.52,-11.63 3.61,-1.69 7.91,-0.8 10.56,2.18l31.29 35.17 -26.85 21.23z"/>
   <path class="fil23" d="M852.63 480.21c-10.28,57.74 -15.57,96.78 33.61,102.36l27.48 -72.16 -61.09 -30.2z"/>
   <path class="fil9" d="M793.17 496.76c-6.02,-4.38 -7.35,-12.81 -2.97,-18.83l76.29 -104.84c2.37,-3.25 6.91,-3.97 10.16,-1.6l10.03 7.29c3.25,2.37 3.97,6.92 1.6,10.16l-76.28 104.84c-4.38,6.02 -12.81,7.35 -18.83,2.97z"/>
   <path class="fil27" d="M797.14 491.49c-3.51,-2.55 -4.29,-7.46 -1.73,-10.96l25.27 -34.72 21.15 -1.99 -33.73 45.95c-2.55,3.51 -7.46,4.28 -10.96,1.73z"/>
   <path class="fil9" d="M884.34 396.41l-23.73 -17.27c-3.49,-2.54 -4.26,-7.42 -1.72,-10.91 2.54,-3.49 7.43,-4.26 10.92,-1.72l23.72 17.26c3.49,2.54 4.26,7.43 1.72,10.92 -2.54,3.49 -7.43,4.25 -10.92,1.72z"/>
   <path class="fil23" d="M850.77 409.26l39.91 9.55c3.63,0.87 6.66,3.38 8.19,6.8l18.05 59.34c2.04,6.71 1.67,13.92 -1.06,20.38l-32.19 76.48c-1.58,-10.49 -24.47,-14.95 -29.44,-41.7 -7.59,-28.21 20.92,-79.98 20.92,-79.98l-0.06 -22.7 -29.61 -14.19c-3.24,-1.55 -5.03,-5.26 -3.94,-8.96 1.14,-3.85 5.33,-5.95 9.24,-5.01z"/>
   <path class="fil23" d="M877.14 452.69c-21.22,-1.58 -31.31,9.72 -26.15,21.14 -5.56,11.07 -3.41,18.72 4.8,25.34 -14.28,-3.34 -17.67,10.19 -14.67,16.55 2.99,6.37 25.62,21.14 25.62,21.14l36.58 -54.85 -26.17 -29.32z"/>
   <path class="fil22" d="M882.22 453.38c2.67,-0.14 4.98,0.25 7.47,1.26 2.53,1.03 4.75,2.4 6.88,4.1 4.13,3.28 7.87,6.76 10.93,11.09 0.53,0.76 -0.74,1.68 -1.33,0.96 -3.12,-3.83 -6.87,-7.38 -11.24,-9.72 -2.11,-1.13 -4.3,-2.12 -6.45,-3.15 -2.29,-1.09 -4.42,-2.18 -6.57,-3.52 -0.5,-0.31 -0.22,-1 0.31,-1.03z"/>
   <path class="fil22" d="M857.79 469.99c0.9,0.11 1.9,-0.34 2.83,-0.36 0.84,-0.02 1.69,-0.01 2.52,0.06 1.69,0.15 3.38,0.54 5.02,0.94 3.52,0.86 6.91,2.11 9.98,4.04 6.05,3.77 10.65,9.44 13.61,15.89 0.42,0.93 -0.91,1.67 -1.41,0.76 -3.19,-5.87 -8.21,-10.44 -13.93,-13.83 -2.78,-1.65 -5.71,-3.14 -8.79,-4.13 -1.52,-0.49 -3.08,-0.79 -4.65,-1.07 -0.82,-0.15 -1.63,-0.31 -2.45,-0.43 -0.82,-0.12 -1.82,-0.61 -2.62,-0.49 -1.04,0.14 -1.09,-1.48 -0.13,-1.37z"/>
   <path class="fil22" d="M859.63 494.85c0.82,-0.05 1.69,0.3 2.46,0.55 0.88,0.29 1.71,0.69 2.55,1.09 1.61,0.75 2.93,1.86 4.26,3.02 2.66,2.34 5.03,4.92 7.34,7.61 0.69,0.81 -0.43,1.86 -1.21,1.14 -2.5,-2.34 -5.3,-4.37 -8.2,-6.18 -1.49,-0.93 -2.95,-1.82 -4.31,-2.95 -1.17,-0.97 -2.74,-1.93 -3.52,-3.25 -0.29,-0.49 0.15,-0.99 0.64,-1.02z"/>
   <path class="fil22" d="M857.57 530.4c3.36,1.64 4.79,5.43 4.59,9.01 -0.26,4.42 -2.83,8.36 -3.07,12.81 -0.19,3.64 0.71,7.35 2.58,10.48 0.91,1.53 2.05,2.89 3.38,4.07 1.45,1.29 3.76,2.16 4.46,4.04 0.5,1.35 -0.48,2.63 -1.81,2.82 -2.01,0.29 -3.81,-1.55 -5.09,-2.87 -1.3,-1.34 -2.42,-2.79 -3.38,-4.38 -1.92,-3.23 -3.25,-6.76 -3.68,-10.5 -0.45,-4 0.37,-7.71 1.72,-11.44 1.24,-3.43 3.47,-9.51 -0.65,-12 -1.21,-0.74 -0.38,-2.7 0.96,-2.04z"/>
   <path class="fil23" d="M874.89 620.24c-33.24,-5.47 -44.59,-35.6 -44.59,-35.6l21.92 -24.3 39.59 7.35 -16.92 52.55z"/>
  </g>
  <path class="fil29" d="M676.1 692.53c5.25,104.83 8.25,157.38 8.25,157.38 90.48,-2.44 87.48,-54.99 -8.25,-157.38z"/>
 </g>
</svg>
