<?xml version="1.0" encoding="UTF-8"?>
<!DOCTYPE svg PUBLIC "-//W3C//DTD SVG 1.1//EN" "http://www.w3.org/Graphics/SVG/1.1/DTD/svg11.dtd">
<!-- Creator: CorelDRAW -->
<svg xmlns="http://www.w3.org/2000/svg" xml:space="preserve" width="38.4019mm" height="25.5556mm" version="1.1" style="shape-rendering:geometricPrecision; text-rendering:geometricPrecision; image-rendering:optimizeQuality; fill-rule:evenodd; clip-rule:evenodd"
viewBox="0 0 199.2 132.56"
 xmlns:xlink="http://www.w3.org/1999/xlink"
 xmlns:xodm="http://www.corel.com/coreldraw/odm/2003">
 <defs>
  <style type="text/css">
   <![CDATA[
    .str0 {stroke:#DDDDDC;stroke-width:0.4;stroke-miterlimit:10}
    .fil7 {fill:#FEFEFE;fill-rule:nonzero}
    .fil8 {fill:#EDEDEB;fill-rule:nonzero}
    .fil9 {fill:#DDDDDC;fill-rule:nonzero}
    .fil10 {fill:#DDDDDC;fill-rule:nonzero}
    .fil4 {fill:url(#id0)}
    .fil3 {fill:url(#id1)}
    .fil0 {fill:url(#id2)}
    .fil1 {fill:url(#id3)}
    .fil5 {fill:url(#id4)}
    .fil2 {fill:url(#id5)}
    .fil6 {fill:url(#id6)}
   ]]>
  </style>
  <linearGradient id="id0" gradientUnits="userSpaceOnUse" x1="-9.41" y1="202.25" x2="-516.73" y2="729">
   <stop offset="0" style="stop-opacity:1; stop-color:#1D5661"/>
   <stop offset="1" style="stop-opacity:1; stop-color:#1E5964"/>
  </linearGradient>
  <linearGradient id="id1" gradientUnits="userSpaceOnUse" xlink:href="#id0" x1="-21.78" y1="190.33" x2="-529.1" y2="717.09">
  </linearGradient>
  <linearGradient id="id2" gradientUnits="userSpaceOnUse" x1="-9.41" y1="202.27" x2="-516.72" y2="729.09">
   <stop offset="0" style="stop-opacity:1; stop-color:#256170"/>
   <stop offset="1" style="stop-opacity:1; stop-color:#276776"/>
  </linearGradient>
  <linearGradient id="id3" gradientUnits="userSpaceOnUse" xlink:href="#id0" x1="3.41" y1="214.6" x2="-503.93" y2="741.34">
  </linearGradient>
  <linearGradient id="id4" gradientUnits="userSpaceOnUse" xlink:href="#id0" x1="-34.62" y1="177.97" x2="-541.94" y2="704.72">
  </linearGradient>
  <linearGradient id="id5" gradientUnits="userSpaceOnUse" xlink:href="#id0" x1="-66.02" y1="147.73" x2="-573.34" y2="674.48">
  </linearGradient>
  <linearGradient id="id6" gradientUnits="userSpaceOnUse" xlink:href="#id0" x1="21.99" y1="232.49" x2="-485.32" y2="759.24">
  </linearGradient>
 </defs>
 <g id="Capa_x0020_1">
  <metadata id="CorelCorpID_0Corel-Layer"/>
  <g id="_2148463020928">
   <path class="fil0" d="M174.14 3.39c-0.66,-0.73 -1.32,-1.44 -1.99,-2.16l0.73 0 1.26 2.16z"/>
   <path class="fil1" d="M194.57 29.3l-1.37 0 -5.85 -10.04c2.49,3.28 4.9,6.63 7.22,10.04z"/>
   <polygon class="fil2" points="63.77,60.63 29.17,60.63 11.87,30.93 29.17,1.23 63.77,1.23 81.07,30.93 "/>
   <polygon class="fil3" points="118.68,92.15 84.08,92.15 66.78,62.45 84.08,32.75 118.68,32.75 135.98,62.45 "/>
   <path class="fil4" d="M172.89 60.63l-34.6 0 -17.3 -29.7 17.3 -29.7 33.86 0c0.67,0.72 1.33,1.43 1.99,2.16l16.04 27.54 -17.3 29.7z"/>
   <polygon class="fil5" points="63.77,123.48 29.17,123.48 11.87,93.78 29.17,64.08 63.77,64.08 81.07,93.78 "/>
   <polygon class="fil6" points="172.89,123.48 138.29,123.48 120.99,93.78 138.29,64.08 172.89,64.08 190.19,93.78 "/>
   <path class="fil7" d="M7.21 132.03l184.78 0c3.69,0 6.68,-2.99 6.68,-6.68l0 -118.14c0,-3.69 -2.99,-6.68 -6.68,-6.68l-184.78 0c-3.69,0 -6.68,2.99 -6.68,6.68l0 118.14c0,3.69 2.99,6.68 6.68,6.68z"/>
   <path class="fil8" d="M7.21 132.03l0 0.53 184.78 0c3.98,0 7.21,-3.23 7.21,-7.21l0 -118.14c-0,-3.98 -3.23,-7.21 -7.21,-7.21l-184.78 0c-3.98,0 -7.21,3.23 -7.21,7.21l0 118.14c0,3.98 3.23,7.21 7.21,7.21l0 -1.05c-1.7,-0 -3.24,-0.69 -4.35,-1.8 -1.11,-1.12 -1.8,-2.65 -1.8,-4.35l0 -118.14c0,-1.7 0.69,-3.24 1.8,-4.35 1.12,-1.11 2.65,-1.8 4.35,-1.8l184.78 0c1.7,0 3.24,0.69 4.35,1.8 1.12,1.12 1.8,2.65 1.8,4.35l0 118.14c0,1.7 -0.69,3.24 -1.8,4.35 -1.12,1.11 -2.65,1.8 -4.35,1.8l-184.78 0 0 0.53z"/>
   <path class="fil8" d="M147.11 72.42c0,0.68 -0.55,1.23 -1.23,1.23l-26.82 0c-0.68,0 -1.23,-0.55 -1.23,-1.23 0,-0.68 0.55,-1.23 1.23,-1.23l26.82 0c0.68,0 1.23,0.55 1.23,1.23z"/>
   <path class="fil8" d="M145.19 66.01c0,0.68 -0.55,1.23 -1.23,1.23l-22.99 0c-0.68,0 -1.23,-0.55 -1.23,-1.23 0,-0.68 0.55,-1.23 1.23,-1.23l22.99 0c0.68,0 1.23,0.55 1.23,1.23z"/>
   <path class="fil8" d="M139.6 59.6c0,0.68 -0.55,1.23 -1.23,1.23l-11.82 0c-0.68,0 -1.23,-0.55 -1.23,-1.23 0,-0.68 0.55,-1.23 1.23,-1.23l11.82 0c0.68,0 1.23,0.55 1.23,1.23z"/>
   <path class="fil8" d="M147.11 107.57c0,0.68 -0.55,1.23 -1.23,1.23l-26.82 0c-0.68,0 -1.23,-0.55 -1.23,-1.23 0,-0.68 0.55,-1.23 1.23,-1.23l26.82 0c0.68,0 1.23,0.55 1.23,1.23z"/>
   <path class="fil8" d="M145.19 101.47c0,0.68 -0.55,1.23 -1.23,1.23l-22.99 0c-0.68,0 -1.23,-0.55 -1.23,-1.23 0,-0.68 0.55,-1.23 1.23,-1.23l22.99 0c0.68,0 1.23,0.55 1.23,1.23z"/>
   <path class="fil8" d="M139.6 95.36c0,0.68 -0.55,1.23 -1.23,1.23l-11.82 0c-0.68,0 -1.23,-0.55 -1.23,-1.23 0,-0.68 0.55,-1.23 1.23,-1.23l11.82 0c0.68,0 1.23,0.55 1.23,1.23z"/>
   <path class="fil8" d="M147.11 37.81c0,0.68 -0.55,1.23 -1.23,1.23l-26.82 0c-0.68,0 -1.23,-0.55 -1.23,-1.23 0,-0.68 0.55,-1.23 1.23,-1.23l26.82 0c0.68,0 1.23,0.55 1.23,1.23z"/>
   <path class="fil8" d="M145.19 43.92c0,0.68 -0.55,1.23 -1.23,1.23l-22.98 0c-0.68,0 -1.23,-0.55 -1.23,-1.23 0,-0.68 0.55,-1.23 1.23,-1.23l22.98 0c0.68,0 1.23,0.55 1.23,1.23z"/>
   <path class="fil8" d="M139.61 50.02c0,0.68 -0.55,1.23 -1.23,1.23l-11.82 0c-0.68,0 -1.23,-0.55 -1.23,-1.23 0,-0.68 0.55,-1.23 1.23,-1.23l11.82 0c0.68,0 1.23,0.55 1.23,1.23z"/>
   <path class="fil8" d="M145 78.84c0,0.68 -0.55,1.23 -1.23,1.23l-22.99 0c-0.68,0 -1.23,-0.55 -1.23,-1.23 0,-0.68 0.55,-1.23 1.23,-1.23l22.99 0c0.68,0 1.23,0.55 1.23,1.23z"/>
   <path class="fil8" d="M140.08 85.25c0,0.68 -0.55,1.23 -1.23,1.23l-13.09 0c-0.68,0 -1.23,-0.55 -1.23,-1.23 0,-0.68 0.55,-1.23 1.23,-1.23l13.09 0c0.68,0 1.23,0.55 1.23,1.23z"/>
   <path class="fil9" d="M147.52 72.43c0,9.89 -7.18,14.72 -14.13,19.39 -6.52,4.39 -12.69,8.53 -12.69,16.67 0,0.9 -0.73,1.64 -1.64,1.64 -0.9,0 -1.64,-0.73 -1.64,-1.64 0,-9.89 7.18,-14.72 14.13,-19.39 6.52,-4.39 12.69,-8.53 12.69,-16.67 0,-8.14 -6.16,-12.29 -12.69,-16.67 -6.95,-4.67 -14.13,-9.5 -14.13,-19.39 0,-0.9 0.73,-1.64 1.64,-1.64 0.9,0 1.64,0.73 1.64,1.64 0,8.14 6.16,12.28 12.69,16.67 6.95,4.67 14.13,9.5 14.13,19.39z"/>
   <path class="fil9" d="M147.52 36.36c0,9.89 -7.18,14.72 -14.13,19.39 -6.52,4.39 -12.69,8.53 -12.69,16.67 0,8.14 6.16,12.29 12.69,16.67 6.95,4.67 14.13,9.5 14.13,19.39 0,0.9 -0.73,1.64 -1.63,1.64 -0.9,0 -1.64,-0.73 -1.64,-1.64 0,-8.14 -6.16,-12.29 -12.69,-16.67 -6.95,-4.67 -14.13,-9.5 -14.13,-19.39 0,-9.89 7.18,-14.72 14.13,-19.39 6.52,-4.39 12.69,-8.53 12.69,-16.67 0,-0.9 0.73,-1.64 1.64,-1.64 0.9,0 1.63,0.73 1.63,1.64z"/>
   <path class="fil8" d="M65.81 18.82l67.58 0c1.17,0 2.11,-0.95 2.11,-2.11 0,-1.17 -0.94,-2.11 -2.11,-2.11l-67.58 0c-1.17,0 -2.11,0.94 -2.11,2.11 0,1.16 0.95,2.11 2.11,2.11z"/>
   <path class="fil8" d="M90.74 64.03c0.25,0.7 -0.12,1.48 -0.83,1.73l-27.94 9.8c-0.71,0.25 -1.48,-0.12 -1.73,-0.83 -0.25,-0.71 0.12,-1.48 0.83,-1.73l27.94 -9.8c0.7,-0.25 1.48,0.12 1.73,0.83z"/>
   <path class="fil9" d="M90.98 69.05c-1.83,3.8 -6.39,5.41 -10.2,3.58 -3.8,-1.83 -5.41,-6.39 -3.58,-10.2 1.83,-3.8 6.39,-5.41 10.2,-3.58 3.8,1.83 5.41,6.39 3.58,10.2z"/>
   <path class="fil8" d="M27.97 76.52c-0.04,-0.75 0.53,-1.39 1.28,-1.43l29.57 -1.64c0.75,-0.04 1.39,0.53 1.43,1.28 0.04,0.75 -0.53,1.39 -1.28,1.43l-29.56 1.64c-0.75,0.04 -1.39,-0.53 -1.43,-1.28z"/>
   <path class="fil8" d="M76.35 102.81c-0.65,0.38 -1.48,0.16 -1.85,-0.48l-14.95 -25.56c-0.38,-0.65 -0.16,-1.48 0.48,-1.85 0.65,-0.38 1.48,-0.16 1.85,0.48l14.96 25.56c0.38,0.65 0.16,1.48 -0.48,1.85z"/>
   <path class="fil8" d="M58.45 42.45c0.75,-0.04 1.39,0.53 1.43,1.28l1.64 29.57c0.04,0.75 -0.53,1.39 -1.28,1.43 -0.75,0.04 -1.39,-0.53 -1.43,-1.28l-1.64 -29.57c-0.04,-0.75 0.53,-1.39 1.28,-1.43z"/>
   <path class="fil9" d="M60.79 84.67c-5.49,0.31 -10.2,-3.9 -10.5,-9.4 -0.31,-5.49 3.9,-10.2 9.4,-10.5 5.49,-0.31 10.2,3.9 10.5,9.4 0.31,5.49 -3.9,10.19 -9.4,10.5z"/>
   <path class="fil9" d="M59.25 56.96c-4.21,0.23 -7.82,-2.99 -8.05,-7.21 -0.23,-4.21 2.99,-7.82 7.21,-8.05 4.21,-0.23 7.82,2.99 8.05,7.21 0.23,4.21 -2.99,7.82 -7.21,8.05z"/>
   <path class="fil9" d="M71.47 104c-4.08,-1.07 -6.53,-5.24 -5.46,-9.33 1.07,-4.08 5.24,-6.53 9.33,-5.46 4.08,1.07 6.53,5.24 5.46,9.33 -1.07,4.08 -5.24,6.53 -9.33,5.46z"/>
   <path class="fil9" d="M25.87 84.29c-4.21,0.23 -7.82,-2.99 -8.05,-7.21 -0.23,-4.21 2.99,-7.82 7.21,-8.05 4.21,-0.23 7.82,2.99 8.05,7.2 0.23,4.21 -2.99,7.82 -7.21,8.05z"/>
   <polygon class="fil8" points="99.07,115.15 100.13,115.15 100.13,32.16 99.07,32.16 "/>
   <path class="fil8" d="M157.34 82.52l31.54 0c0.87,0 1.58,-0.71 1.58,-1.58 0,-0.87 -0.71,-1.58 -1.58,-1.58l-31.54 0c-0.87,0 -1.58,0.71 -1.58,1.58 0,0.87 0.71,1.58 1.58,1.58z"/>
   <path class="fil8" d="M157.34 91.32l31.54 0c0.87,0 1.58,-0.71 1.58,-1.58 0,-0.87 -0.71,-1.58 -1.58,-1.58l-31.54 0c-0.87,0 -1.58,0.71 -1.58,1.58 0,0.87 0.71,1.58 1.58,1.58z"/>
   <path class="fil8" d="M157.34 100.12l31.54 0c0.87,0 1.58,-0.71 1.58,-1.58 0,-0.87 -0.71,-1.58 -1.58,-1.58l-31.54 0c-0.87,0 -1.58,0.71 -1.58,1.58 0,0.87 0.71,1.58 1.58,1.58z"/>
   <path class="fil8" d="M157.34 108.92l16.66 0c0.87,0 1.58,-0.71 1.58,-1.58 0,-0.87 -0.71,-1.58 -1.58,-1.58l-16.66 0c-0.87,0 -1.58,0.71 -1.58,1.58 0,0.87 0.71,1.58 1.58,1.58z"/>
   <path class="fil8" d="M157.34 39.64l31.54 0c0.87,0 1.58,-0.71 1.58,-1.58 0,-0.87 -0.71,-1.58 -1.58,-1.58l-31.54 0c-0.87,0 -1.58,0.71 -1.58,1.58 0,0.87 0.71,1.58 1.58,1.58z"/>
   <path class="fil8" d="M157.34 48.43l16.66 0c0.87,0 1.58,-0.71 1.58,-1.58 0,-0.87 -0.71,-1.58 -1.58,-1.58l-16.66 0c-0.87,0 -1.58,0.71 -1.58,1.58 0,0.87 0.71,1.58 1.58,1.58z"/>
   <path class="fil9" d="M51.7 97.9c-1.83,3.8 -6.39,5.41 -10.2,3.58 -3.8,-1.83 -5.41,-6.39 -3.58,-10.2 1.83,-3.8 6.39,-5.41 10.2,-3.58 3.8,1.83 5.41,6.39 3.58,10.2z"/>
   <path class="fil10 str0" d="M59.87 73.35c0.61,0.43 0.76,1.28 0.33,1.89l-17.03 24.22c-0.43,0.61 -1.28,0.76 -1.89,0.33 -0.61,-0.43 -0.76,-1.28 -0.33,-1.89l17.03 -24.22c0.43,-0.61 1.28,-0.76 1.89,-0.33z"/>
  </g>
 </g>
</svg>
